<svg version="1.1" id="Layer_1" xmlns="http://www.w3.org/2000/svg" xmlns:xlink="http://www.w3.org/1999/xlink" x="0px" y="0px"
	 width="100%" viewBox="0 0 1024 1024" enable-background="new 0 0 1024 1024" xml:space="preserve">
<path fill="none" opacity="1.000000" stroke="#000000" stroke-linecap="round" stroke-linejoin="round" stroke-width="7.000000"
	d="
M373.500000,650.500000 
	C374.596161,653.502563 377.162933,652.996155 379.500000,652.996765 
	C400.333344,653.002319 421.166656,653.000000 442.000000,653.000000 
	C510.500000,653.000000 579.000061,652.967041 647.499939,653.050476 
	C654.449646,653.058960 654.203491,652.046021 653.988220,646.000427 
	C652.884888,615.004700 653.226807,583.991638 653.634155,553.001770 
	C654.265076,504.998474 653.824097,456.999603 653.870483,408.999878 
	C653.878662,400.515228 653.531494,391.999969 653.558472,383.500183 
	C653.569214,380.132141 652.158997,378.849854 648.999756,378.994263 
	C648.168152,379.032288 647.333313,379.000000 646.500000,379.000000 
	C557.833313,379.000000 469.166656,379.000000 380.500000,379.000000 
	C373.391541,379.000000 373.000000,379.391541 373.000000,386.500000 
	C373.000000,436.500000 373.000000,486.500000 373.000000,536.500000 
	C373.000000,559.833313 372.777344,583.169739 373.099701,606.498596 
	C373.247223,617.173401 373.623260,627.827454 373.059021,638.503113 
	C372.857452,642.316956 373.333313,646.166687 373.500000,650.000000 
"/>
<path fill="none" opacity="1.000000" stroke="#000000" stroke-linecap="round" stroke-linejoin="round" stroke-width="7.000000"
	d="
M926.500000,495.500000 
	C884.503540,496.565582 842.499817,495.910187 800.499939,495.951721 
	C758.579712,495.993134 716.650146,496.386261 674.500000,495.656067 
	C674.500000,492.835114 674.500000,491.167542 674.500000,489.500000 
	C674.500000,450.666656 674.393616,411.832855 674.572144,373.000336 
	C674.618835,362.843170 670.528992,358.128082 660.004578,357.835571 
	C652.481079,357.626495 644.996399,358.012146 637.500549,357.941711 
	C547.667786,357.097809 457.833282,357.691925 368.000061,357.472931 
	C355.971832,357.443604 351.289703,364.852997 351.365051,374.001099 
	C351.683624,412.665131 351.501038,451.333344 351.498932,490.000000 
	C351.498596,495.963806 351.491943,495.994781 345.500000,495.995300 
	C265.166656,496.002289 184.833328,496.002716 104.500008,495.979156 
	C102.999954,495.978729 101.500000,495.666656 100.000000,495.500000 
"/>
<path fill="none" opacity="1.000000" stroke="#000000" stroke-linecap="round" stroke-linejoin="round" stroke-width="7.000000"
	d="
M925.500000,519.500000 
	C923.666687,519.333313 921.833374,519.021484 920.000000,519.020935 
	C840.333313,518.996704 760.666687,518.999146 681.000000,519.001404 
	C673.043945,519.001648 672.293213,520.078979 674.465332,528.009460 
	C674.720154,528.939697 674.495483,530.000000 674.500671,531.000000 
	C674.666565,563.000000 674.846619,594.999939 674.992554,627.000061 
	C675.040405,637.499817 674.790894,648.005249 675.054016,658.498657 
	C675.368774,671.056274 667.555847,677.678833 656.490295,675.040710 
	C655.228699,674.739929 653.833313,675.000000 652.500000,675.000000 
	C557.166687,675.000000 461.833344,675.000000 366.500000,675.000000 
	C357.605713,675.000000 351.509155,668.941467 351.506378,660.000000 
	C351.492401,615.166687 351.500000,570.333313 351.500000,525.500000 
	C351.500000,519.008789 351.500000,519.001282 345.000000,519.001160 
	C267.000000,518.999390 189.000000,519.006409 111.000008,518.978760 
	C107.499947,518.977539 104.000000,518.666687 100.500000,518.500000 
"/>
<path fill="none" opacity="1.000000" stroke="#000000" stroke-linecap="round" stroke-linejoin="round" stroke-width="7.000000"
	d="
M325.500000,547.500000 
	C318.509827,548.079895 311.536438,548.196472 304.498993,548.148438 
	C261.167664,547.852661 217.830612,547.727783 174.501617,548.161072 
	C160.991272,548.296204 147.500000,547.834900 134.000000,548.000000 
"/>
<path fill="none" opacity="1.000000" stroke="#000000" stroke-linecap="round" stroke-linejoin="round" stroke-width="7.000000"
	d="
M882.000000,549.500000 
	C876.293335,547.522095 870.372803,548.006287 864.500000,548.005249 
	C812.000000,547.996216 759.500000,548.005920 707.000000,547.978821 
	C704.833252,547.977722 702.666687,547.666626 700.500000,547.500000 
"/>
<path fill="none" opacity="1.000000" stroke="#000000" stroke-linecap="round" stroke-linejoin="round" stroke-width="8.000000"
	d="
M939.500000,532.500000 
	C942.697449,520.640625 941.203247,508.519653 941.471130,496.499359 
	C941.511902,494.670624 941.231262,492.824677 940.986206,491.001862 
	C940.518738,487.524628 938.390503,485.441772 932.501953,486.020142 
	C928.668762,486.396667 927.010193,488.805267 927.003723,492.500000 
	C926.991150,499.666626 926.786377,506.843262 927.118103,513.994507 
	C927.231262,516.435486 925.290955,518.407104 926.438293,521.027039 
	C929.433655,527.866394 930.279968,528.500000 939.000000,528.500000 
"/>
<path fill="none" opacity="1.000000" stroke="#000000" stroke-linecap="round" stroke-linejoin="round" stroke-width="7.000000"
	d="
M85.500000,487.500000 
	C84.372581,498.318542 84.770905,509.189056 85.176193,519.993408 
	C85.481956,528.144531 86.713326,528.500000 96.292580,528.500000 
	C96.883057,527.116699 97.315285,525.735413 98.021660,524.512512 
	C101.212730,518.988220 99.269264,513.035828 98.703552,507.530457 
	C98.163918,502.278870 100.045822,497.199463 98.585648,491.976044 
	C97.046509,486.470215 96.712463,485.925171 90.999985,486.499817 
	C89.333412,486.667480 87.666664,486.833344 86.000000,487.000000 
"/>
<path fill="none" opacity="1.000000" stroke="#000000" stroke-linecap="round" stroke-linejoin="round" stroke-width="4.000000"
	d="
M674.000000,495.500000 
	C672.731018,496.544983 672.449829,497.903961 672.473267,499.500397 
	C672.546326,504.499329 672.546265,509.500671 672.473206,514.499634 
	C672.449829,516.096069 672.731018,517.455017 674.000000,518.500000 
"/>
<path fill="none" opacity="1.000000" stroke="#000000" stroke-linecap="round" stroke-linejoin="round" stroke-width="7.000000"
	d="
M316.000000,548.000000 
	C315.303375,542.070312 310.011536,541.131897 305.951050,539.097717 
	C303.552368,537.896118 300.666656,537.666687 298.000000,537.000000 
"/>
<path fill="none" opacity="1.000000" stroke="#000000" stroke-linecap="round" stroke-linejoin="round" stroke-width="6.000000"
	d="
M894.500000,548.000000 
	C892.166687,548.000000 889.747742,547.613647 887.523499,548.106201 
	C885.190308,548.622803 882.232788,547.981628 881.302429,551.953735 
	C880.568909,555.085388 877.048706,556.309814 874.032227,557.576782 
	C871.557983,558.616028 868.757690,559.693665 868.250000,563.000000 
"/>
<path fill="none" opacity="1.000000" stroke="#000000" stroke-linecap="round" stroke-linejoin="round" stroke-width="5.000000"
	d="
M315.500000,549.000000 
	C314.593048,552.175659 313.033569,554.694458 309.504364,555.518677 
	C305.650635,556.418701 302.828918,560.047363 298.500000,559.750000 
"/>
<path fill="none" opacity="1.000000" stroke="#000000" stroke-linecap="round" stroke-linejoin="round" stroke-width="6.000000"
	d="
M866.500000,536.500000 
	C874.076660,537.865540 881.308105,539.771423 884.500000,548.000000 
"/>
</svg>