<svg version="1.1" id="Layer_1" xmlns="http://www.w3.org/2000/svg" xmlns:xlink="http://www.w3.org/1999/xlink" x="0px" y="0px"
	 width="100%" viewBox="0 0 1024 1024" enable-background="new 0 0 1024 1024" xml:space="preserve">
<path fill="#000000" opacity="1.000000" stroke="none" 
	d="
M394.006348,398.282837 
	C402.120605,343.699249 428.444489,300.531586 473.324951,269.437317 
	C510.936096,243.379410 552.964905,233.142426 598.562012,239.466064 
	C648.588257,246.403961 688.786621,270.604492 719.528259,310.295898 
	C740.696777,337.627136 753.113770,368.744934 756.363342,403.330505 
	C756.889893,408.934418 757.393311,414.540497 757.905579,420.126038 
	C762.798584,420.545319 764.146667,418.226135 763.736450,413.913055 
	C763.434570,410.738800 764.135925,407.520081 768.174561,407.444885 
	C772.662476,407.361298 772.885437,410.884521 772.828430,414.182556 
	C772.759399,418.177155 772.497925,422.168182 772.340393,426.161560 
	C772.230103,428.956390 771.513245,431.788727 769.095459,433.136169 
	C765.546387,435.114075 765.301086,437.984467 765.181274,441.481232 
	C764.930176,448.806671 762.447144,452.068542 755.452515,454.166016 
	C751.882202,455.236664 750.643188,457.059448 750.138428,460.800995 
	C748.341797,474.117859 746.757141,487.446625 743.297119,500.549164 
	C741.166870,508.615997 741.162231,517.369507 739.576477,525.557129 
	C737.741150,535.033081 736.841370,544.579712 735.369751,554.063110 
	C729.885010,589.409607 724.672791,624.798401 719.353821,660.170593 
	C715.618713,685.008850 711.970764,709.860718 708.084961,734.675415 
	C706.771484,743.062988 705.234314,751.416626 704.677185,759.892395 
	C704.383545,764.360535 702.135925,767.311218 698.490540,769.504700 
	C688.193298,775.700317 676.714355,778.676880 665.179321,781.212219 
	C638.724182,787.026978 611.878662,789.055725 584.811035,789.481506 
	C549.520447,790.036682 514.620361,787.322205 480.217224,779.267029 
	C471.123413,777.137817 462.235077,774.330933 454.005463,769.729370 
	C448.511169,766.657288 445.776550,762.650513 445.488068,755.804199 
	C444.837158,740.355530 441.558380,725.155273 439.348938,709.854858 
	C435.141327,680.717529 430.874725,651.588501 426.550201,622.468262 
	C422.445709,594.829468 418.237518,567.206055 414.071503,539.576416 
	C412.248260,527.484558 411.418365,515.131287 408.335144,503.369202 
	C404.478699,488.657501 402.756256,473.692017 400.352936,458.792542 
	C399.981476,456.489777 398.726227,455.240540 396.483398,454.893555 
	C388.361237,453.637024 385.530212,448.031830 385.144348,440.706207 
	C384.974579,437.482727 384.134766,435.121826 381.268188,433.229584 
	C378.628967,431.487427 377.890106,428.372772 377.725189,425.281738 
	C377.503418,421.124359 377.351898,416.963043 377.194763,412.802490 
	C377.075958,409.657013 378.430725,407.586243 381.713257,407.400604 
	C385.236786,407.201355 386.431793,409.511139 386.294434,412.544159 
	C386.102478,416.783203 386.429718,420.346283 392.357452,419.475952 
	C392.880463,412.592651 393.407288,405.658997 394.006348,398.282837 
M732.743591,472.507629 
	C732.452820,473.068329 732.162048,473.629028 731.547058,474.858246 
	C730.614563,481.712311 735.780151,492.019745 741.867188,494.821442 
	C743.837952,482.011475 746.555481,469.437622 747.125549,456.482025 
	C741.992920,461.459259 736.028198,465.378693 732.743591,472.507629 
M593.501099,556.324341 
	C534.743103,556.273865 476.028198,555.700439 418.356659,541.700623 
	C417.577087,544.012573 418.209747,546.161743 418.510132,548.233826 
	C422.155304,573.381104 425.867706,598.518738 429.602905,623.652893 
	C435.807800,665.405701 442.111176,707.144104 448.172150,748.917725 
	C448.891907,753.878540 451.096161,757.243286 455.218414,759.678955 
	C461.281982,763.261475 467.793060,765.764465 474.516815,767.773193 
	C497.647034,774.683350 521.502075,777.097107 545.421692,778.598206 
	C584.935059,781.077942 624.301636,779.713745 663.213867,771.699036 
	C674.295776,769.416504 685.269287,766.564697 695.242493,760.843018 
	C699.067871,758.648315 701.798035,755.747681 702.472168,751.252930 
	C706.515686,724.291992 710.522461,697.325684 714.594482,670.369080 
	C720.155823,633.553467 725.852905,596.757935 731.262939,559.920227 
	C732.130981,554.009338 733.751099,548.074402 733.327454,541.625488 
	C687.305725,552.931641 640.978638,555.347778 593.501099,556.324341 
M731.490479,430.792877 
	C738.515259,431.946930 745.245544,434.261017 751.916870,436.466156 
	C753.491455,433.870911 752.704407,431.892853 751.553772,429.988678 
	C749.504944,426.598297 749.011230,422.835815 748.691528,418.988892 
	C748.140381,412.357971 747.743469,405.698700 746.815002,399.117188 
	C739.555725,347.656677 714.701721,306.591400 671.929810,277.321991 
	C623.731750,244.339447 570.826599,236.487411 516.354126,257.664429 
	C445.500092,285.210052 407.558899,338.659485 402.013336,414.726074 
	C401.626312,420.034821 401.422180,425.333649 398.698395,430.203186 
	C397.549835,432.256592 396.823303,434.726959 398.235901,437.407471 
	C404.287170,434.634186 410.343353,432.870911 416.544739,431.664673 
	C455.930969,424.003967 495.863464,422.125427 535.814087,421.084503 
	C581.284546,419.899780 626.757874,420.251923 672.152710,423.803802 
	C691.739441,425.336365 711.283020,427.193115 731.490479,430.792877 
M471.835815,523.038452 
	C474.149841,523.148865 476.502289,523.028381 478.771790,523.406250 
	C496.568176,526.368652 514.597900,526.957581 532.521606,527.432983 
	C583.482849,528.784668 634.455078,528.826477 685.200378,522.606812 
	C701.220093,520.643311 717.237854,518.722473 732.833618,514.269775 
	C736.648804,513.180542 738.545227,511.474762 739.064453,507.201782 
	C739.675171,502.175232 740.093018,497.912140 735.762085,494.073090 
	C733.494141,492.062622 732.343811,488.804993 730.639709,486.142029 
	C726.489868,479.657349 727.347107,473.499512 731.876221,467.629242 
	C733.500427,465.524170 735.242126,463.498352 737.055847,461.553589 
	C739.609619,458.815247 742.280212,456.185822 744.785339,453.627777 
	C689.096680,464.790436 632.686951,466.191895 576.226196,466.292786 
	C519.660583,466.393860 463.152740,465.023529 407.116730,454.005402 
	C408.599396,457.211548 411.091431,459.197388 413.408417,461.284973 
	C425.777313,472.429230 426.498535,479.078613 416.664490,492.597443 
	C415.786682,493.804108 414.895416,495.091736 413.734711,495.982605 
	C411.423859,497.756165 411.158447,500.008484 411.421906,502.645813 
	C412.437836,512.815063 412.646606,513.111389 422.551880,515.392761 
	C424.497650,515.840881 426.468811,516.188110 428.438507,516.521118 
	C433.239899,517.332825 434.125427,516.514893 433.449677,511.595276 
	C431.322418,496.108490 429.109680,480.633392 427.001038,465.144135 
	C426.758240,463.360474 425.895813,461.298187 428.831055,458.901672 
	C432.579285,478.984375 434.733093,498.420410 437.383118,518.428772 
	C448.285645,520.020691 459.565826,521.989685 471.835815,523.038452 
M422.818787,437.379578 
	C417.752289,438.450378 412.593933,439.251465 407.257629,442.047943 
	C411.349792,444.362579 414.912170,445.130737 418.482727,445.790680 
	C448.673401,451.370453 479.252930,453.111084 509.826477,454.576416 
	C546.259094,456.322571 582.732483,456.139893 619.194641,455.559845 
	C629.338135,455.398529 639.469604,454.558075 649.610596,454.121765 
	C652.508179,453.997131 653.667725,452.786224 653.755615,449.824097 
	C653.893555,445.175476 654.192505,440.497467 654.919006,435.910431 
	C655.594238,431.647247 654.547241,429.973999 649.914551,429.884521 
	C635.273743,429.601685 620.645386,428.670898 606.004578,428.390900 
	C564.706848,427.601044 523.444519,428.511230 482.215607,431.178345 
	C462.611084,432.446594 443.071991,434.158173 422.818787,437.379578 
M668.830322,543.195862 
	C676.098267,542.326294 683.375244,541.525208 690.632263,540.572266 
	C704.001221,538.816833 717.328857,536.782227 730.262756,532.832825 
	C735.754089,531.156067 736.949524,528.945740 736.063110,522.962219 
	C734.962585,523.109314 733.825195,523.154846 732.742188,523.421448 
	C694.526550,532.828613 655.500671,535.639099 616.384766,536.942261 
	C573.424988,538.373474 530.466919,537.513550 487.588928,534.036865 
	C485.335449,533.854187 481.843994,532.473755 481.942444,537.220703 
	C482.019073,540.914246 482.507050,543.527222 487.296417,543.732727 
	C505.090515,544.496338 522.858032,546.004028 540.656250,546.521240 
	C583.128906,547.755493 625.571472,546.932861 668.830322,543.195862 
M505.619049,255.188568 
	C477.188812,266.865234 454.057800,285.571533 435.066528,309.401794 
	C414.717285,334.936005 402.396301,364.041840 397.447235,396.401855 
	C395.786530,407.260468 398.333130,418.489410 393.847992,429.068848 
	C398.177521,426.985748 398.146057,423.005249 398.476440,419.368011 
	C399.108765,412.407104 398.999329,405.353790 400.001709,398.455658 
	C406.975647,350.463043 429.144623,310.969757 467.433319,281.081970 
	C505.612671,251.279510 549.128845,239.122604 597.211060,245.032013 
	C623.680176,248.285126 648.224670,257.623383 670.451965,272.562805 
	C710.709717,299.620850 736.380493,336.761169 747.337708,384.064972 
	C750.279785,396.766418 751.038025,409.718140 752.257019,422.624359 
	C752.554688,425.775635 752.988953,428.841827 757.072327,430.475586 
	C756.987000,425.801880 754.518616,422.267883 754.438110,418.047607 
	C754.286194,410.083862 753.594299,402.063904 752.315613,394.199188 
	C744.895142,348.558197 723.632202,310.405975 687.506775,281.649780 
	C632.574890,237.923401 571.806885,229.294113 505.619049,255.188568 
M512.382629,461.939240 
	C516.536987,462.174438 520.688782,462.548096 524.846008,462.623962 
	C579.818298,463.627014 634.772461,463.579559 689.592102,458.600037 
	C707.328308,456.988953 725.088318,455.200348 742.331177,450.427734 
	C746.481201,449.279083 752.879333,448.616180 752.998779,443.821228 
	C753.132019,438.472992 746.421021,438.355743 742.316589,436.537231 
	C742.203979,436.487335 741.932129,436.796783 741.643372,437.004089 
	C744.007019,438.379761 747.368591,438.794647 747.000549,442.282623 
	C746.657410,445.535858 743.491821,446.034332 741.086121,446.931732 
	C735.911621,448.862122 730.436096,449.630096 725.005798,450.408997 
	C681.735962,456.615601 638.154968,458.365173 594.526978,459.038361 
	C551.880554,459.696350 509.268433,458.240540 466.746643,455.005859 
	C448.349213,453.606323 429.926117,451.867645 411.909241,447.432800 
	C407.472656,446.340729 403.019196,445.417450 403.105927,439.488525 
	C400.090790,439.556610 398.640442,441.049866 398.404724,443.451935 
	C398.143555,446.113678 400.283966,447.139191 402.295380,448.026215 
	C412.175323,452.383057 422.813202,453.920593 433.308838,455.435272 
	C459.193604,459.170807 485.299927,460.705017 512.382629,461.939240 
M619.234009,552.639343 
	C640.653992,551.241150 662.114380,550.299866 683.422302,547.552979 
	C699.096008,545.532471 714.765259,543.402710 730.026184,539.087524 
	C731.750916,538.599854 734.052368,538.589111 734.032776,535.421692 
	C681.848572,548.273621 628.917786,550.348389 575.850037,550.159058 
	C522.862305,549.969971 469.962097,548.087280 417.042816,535.327271 
	C419.291290,538.928650 422.080200,539.086060 424.499390,539.700073 
	C461.033875,548.972900 498.443054,551.034241 535.846863,552.544678 
	C563.300476,553.653259 590.801208,553.174500 619.234009,552.639343 
M552.500061,533.950806 
	C563.322327,534.151184 574.152527,534.718384 584.965332,534.483398 
	C618.254822,533.760254 651.534424,532.719055 684.636414,528.653015 
	C700.500000,526.704346 716.327515,524.585815 731.801086,520.449158 
	C733.548279,519.982117 735.971252,520.045959 736.168152,517.980652 
	C629.045471,536.863281 521.906677,535.934753 414.709381,517.826660 
	C415.627716,519.934448 417.800415,520.126587 419.629242,520.557190 
	C425.944519,522.044006 432.260895,523.614807 438.658386,524.649414 
	C476.024719,530.692505 513.693787,533.179443 552.500061,533.950806 
M663.172424,778.641724 
	C673.582458,776.270813 683.860291,773.458130 693.508240,768.783386 
	C696.805908,767.185547 700.301331,765.555054 701.795410,759.976257 
	C694.873047,765.063599 688.421265,768.001282 681.589661,770.162903 
	C651.721558,779.613525 620.790283,781.477783 589.824036,782.949158 
	C567.970581,783.987488 546.210327,782.016113 524.498962,779.929443 
	C504.091736,777.968140 483.878571,774.789917 464.503143,767.588562 
	C459.329987,765.665833 454.700684,762.612915 449.192535,760.179077 
	C450.256409,764.357422 453.212250,765.771484 455.938049,767.246521 
	C465.554413,772.450378 475.982513,775.411072 486.594330,777.634521 
	C520.163635,784.668030 554.111572,786.975159 588.383972,786.197693 
	C613.262939,785.633240 637.913940,783.517639 663.172424,778.641724 
M675.217285,452.643280 
	C678.530518,452.329071 681.856750,452.113892 685.154114,451.679199 
	C691.259094,450.874390 688.482910,445.619354 689.253174,442.453857 
	C689.933228,439.659515 691.549805,435.782288 687.472839,433.588623 
	C687.052734,433.362579 686.509155,433.323517 686.015808,433.282379 
	C678.063171,432.618988 670.109009,431.974701 662.156189,431.313660 
	C659.443909,431.088226 658.278931,432.289124 658.087891,435.029755 
	C657.741089,440.004089 657.206421,444.970306 656.579834,449.918365 
	C656.189941,452.997589 657.793701,453.811615 660.355408,453.659332 
	C665.004883,453.382904 669.648743,453.011993 675.217285,452.643280 
M719.658264,447.978485 
	C727.659180,446.758026 735.935059,446.569427 743.490479,442.307770 
	C741.567932,439.853668 739.371826,439.640228 737.304443,439.134644 
	C726.792175,436.563995 716.059204,435.445953 705.340210,434.206207 
	C692.519531,432.723389 692.813232,430.831665 692.175476,446.021393 
	C692.013916,449.869873 693.333801,451.166046 697.024841,450.692841 
	C704.267029,449.764374 711.524658,448.956787 719.658264,447.978485 
M476.438141,542.200317 
	C480.871979,541.340881 478.380219,537.998474 478.546295,535.796692 
	C478.769745,532.834839 476.231689,532.622864 474.050812,532.375793 
	C466.479218,531.517822 458.913666,530.592957 451.329071,529.868774 
	C447.312469,529.485352 443.367645,527.969604 439.245728,528.631470 
	C439.288605,537.034668 439.278320,537.095459 447.075226,538.416504 
	C456.546356,540.021057 466.051025,541.402100 476.438141,542.200317 
M406.169617,476.591003 
	C407.028503,482.531189 407.498871,488.555450 409.430817,494.455841 
	C415.785553,490.804382 421.215851,480.165222 419.670776,474.235168 
	C418.766571,477.830170 417.592712,480.957672 413.735199,480.814941 
	C411.163025,480.719788 409.559357,478.702515 408.991028,476.292450 
	C407.816864,471.312866 411.632233,469.796051 415.850433,468.065155 
	C412.226501,464.075073 408.907379,460.625275 404.643463,457.441010 
	C404.206787,458.742035 403.765106,459.376495 403.839111,459.943665 
	C404.526245,465.207916 405.302124,470.460571 406.169617,476.591003 
M474.123444,428.592468 
	C523.232422,424.460175 572.449524,424.325104 621.680115,424.730682 
	C562.456543,423.387085 503.284363,423.606903 444.346344,430.578644 
	C454.010559,430.706909 463.513184,428.445740 474.123444,428.592468 
M423.183990,533.355530 
	C425.927185,534.057800 428.648376,534.871277 431.421814,535.421021 
	C433.109772,535.755554 435.596466,536.664917 436.046326,534.173340 
	C436.454651,531.911682 436.886841,528.388123 434.251984,527.505981 
	C428.068420,525.435852 421.686493,523.757874 414.887878,523.317871 
	C414.252228,529.596619 417.645477,531.912292 423.183990,533.355530 
M661.816833,427.588684 
	C681.863831,428.099579 701.725769,430.857483 721.678467,432.501923 
	C692.437622,428.310486 663.073181,425.698456 633.514526,425.581329 
	C642.635925,426.242188 651.757263,426.903046 661.816833,427.588684 
M766.451172,413.456482 
	C766.168701,419.299469 766.961182,425.164886 765.243530,431.085114 
	C766.404236,430.984039 766.851135,431.082397 767.018799,430.909698 
	C769.241272,428.620850 771.064636,414.163635 769.259705,411.779907 
	C767.870972,409.945862 767.143311,411.436310 766.451172,413.456482 
M380.376740,421.197144 
	C380.761383,424.770691 380.249146,428.718201 384.320312,431.166748 
	C384.925507,423.826294 383.133820,412.545349 381.025238,410.978729 
	C379.782013,414.084625 380.581726,417.243927 380.376740,421.197144 
M756.853149,448.308746 
	C755.415833,449.481354 752.789185,448.758423 751.958557,451.585968 
	C756.341064,451.527344 760.035095,450.112122 761.104004,446.038025 
	C762.938538,439.046356 761.818726,431.871857 760.968628,424.774658 
	C760.147522,429.537323 760.180969,434.301941 760.135803,439.065826 
	C760.105713,442.241882 760.001282,445.428284 756.853149,448.308746 
M389.967072,429.759949 
	C389.781891,427.852814 390.333496,425.867371 389.056274,424.032898 
	C388.605774,430.991974 387.585297,437.986603 389.086273,444.903442 
	C390.133575,449.729523 392.844513,451.222412 398.886566,450.704559 
	C390.934387,448.639862 390.297150,442.485199 390.054871,436.126190 
	C389.985535,434.305664 390.006226,432.481659 389.967072,429.759949 
M413.114380,473.077148 
	C411.832581,474.642883 411.858612,476.104950 413.668945,477.168365 
	C413.993713,477.359100 415.112396,476.916473 415.291412,476.512390 
	C416.052429,474.794586 415.980469,473.262329 413.114380,473.077148 
z"/>
<path fill="#000000" opacity="1.000000" stroke="none" 
	d="
M211.836945,739.547241 
	C211.493408,734.828857 211.021683,730.510010 211.016968,726.190613 
	C210.957108,671.365234 211.017212,616.539612 210.891739,561.714417 
	C210.874893,554.353333 211.952316,547.439514 215.886353,541.158813 
	C217.600082,538.422668 217.543106,536.055481 215.610870,533.378723 
	C211.463562,527.633484 210.354782,521.593079 214.621628,515.295227 
	C216.192368,512.976807 215.963547,510.720428 214.458466,508.312561 
	C210.722427,502.335571 209.410385,495.723145 209.689362,488.717407 
	C210.218658,475.425842 208.540131,462.047394 211.237152,448.841614 
	C214.750702,431.637817 223.230179,416.836487 233.542221,402.937378 
	C241.589600,392.090759 250.224121,381.708923 259.215149,371.648071 
	C264.716858,365.491730 262.113037,358.429321 262.319183,351.661682 
	C262.357697,350.397156 260.924622,349.900238 259.795776,349.545380 
	C257.608337,348.857758 255.733658,347.931427 255.801712,345.179108 
	C255.873383,342.280518 258.394958,342.195587 259.965820,341.527954 
	C259.524811,336.220886 258.927155,331.128235 258.725952,326.019958 
	C258.522827,320.862762 258.808472,315.688263 258.711121,310.524536 
	C258.497620,299.200195 257.162170,295.641571 274.046509,294.649506 
	C291.529694,293.622314 308.995056,293.107056 326.404938,295.593872 
	C332.385223,296.448059 334.397217,298.281891 334.613190,304.267883 
	C334.954163,313.718048 336.082947,323.239716 333.604126,332.598145 
	C332.840668,335.480469 335.212952,338.617126 332.501923,341.350586 
	C334.902313,342.026733 337.065430,342.601593 337.207184,345.356659 
	C337.335388,347.847931 335.718689,348.906250 333.664429,349.517822 
	C331.215302,350.246918 330.530273,351.896301 330.277374,354.364777 
	C329.397614,362.952423 331.649139,369.871857 337.834320,376.451324 
	C349.812042,389.192627 360.584198,403.010956 369.703552,418.031097 
	C376.621735,429.425873 381.647278,441.453552 382.619659,454.908539 
	C383.628967,468.873627 383.655792,482.845886 382.627716,496.808167 
	C382.304047,501.204010 380.740234,505.280090 378.202698,508.877014 
	C376.658417,511.065948 376.401794,513.004700 378.025116,515.229309 
	C382.321350,521.117126 381.912537,527.057129 377.845825,532.831970 
	C375.692505,535.889832 375.367767,538.698425 377.470398,541.989990 
	C381.193878,547.818909 381.917175,554.461426 381.920166,561.193970 
	C381.945709,618.352417 381.951324,675.510803 381.952576,732.669250 
	C381.952637,736.702820 381.667450,740.675720 379.055115,744.065857 
	C378.094910,745.312012 377.448944,746.696899 378.616699,748.160767 
	C382.713379,753.296326 382.579559,759.346985 382.154205,765.351318 
	C381.240601,778.248413 378.526855,790.712524 372.556274,802.318909 
	C367.042175,813.038025 359.423859,817.056274 347.576935,814.873779 
	C344.024414,814.219299 341.717163,814.996643 339.172577,817.475220 
	C331.099182,825.338989 317.348633,825.822571 308.421082,818.874451 
	C299.608002,812.015503 293.534058,811.971741 284.546417,818.702393 
	C274.935547,825.899841 262.372437,825.154968 253.640732,816.644531 
	C251.604691,814.660034 249.661499,814.125183 246.938843,814.597778 
	C233.117310,816.997070 226.009491,813.498962 219.808990,800.914185 
	C212.979446,787.052551 210.048264,772.296265 210.701874,756.859497 
	C210.770462,755.239380 210.956039,753.223145 211.919632,752.113403 
	C215.556396,747.925232 215.180862,744.002319 211.836945,739.547241 
M298.211029,302.860870 
	C286.782227,302.292023 275.353424,301.723175 264.269623,301.171478 
	C266.491974,309.218292 264.504395,317.320282 265.889923,325.164185 
	C266.482849,317.735321 265.524139,310.157776 268.266998,302.940216 
	C270.432312,310.934479 268.346161,319.259216 270.840637,327.158142 
	C272.699921,319.341370 270.432037,311.115021 272.556091,303.364716 
	C273.092651,303.388763 273.629242,303.412811 274.165833,303.436859 
	C274.165833,312.190033 274.165833,320.943176 274.165833,330.023315 
	C269.600311,330.100037 264.870605,330.753113 261.458160,326.443115 
	C260.961975,329.861084 263.183624,330.548462 265.963928,330.838623 
	C274.726807,331.753204 283.477142,332.411041 292.320038,332.307312 
	C303.785400,332.172852 315.229889,332.133636 326.655762,330.941467 
	C330.405701,330.550201 331.913757,329.031158 331.790649,325.249847 
	C331.596252,319.279053 331.738922,313.297333 331.738922,307.320221 
	C330.787781,314.168213 331.822510,321.173126 330.198242,327.932465 
	C327.436584,323.472534 328.238037,303.727478 330.859772,301.202881 
	C328.145020,300.591339 326.798370,300.612091 326.988495,304.133057 
	C327.373993,311.273376 327.202637,318.445831 327.175964,325.604767 
	C327.169586,327.312195 327.559845,329.547424 323.574219,329.191772 
	C323.574219,321.482330 323.574219,313.669159 323.574219,305.855988 
	C323.126740,305.883850 322.679230,305.911743 322.231750,305.939606 
	C322.231750,313.862488 322.231750,321.785370 322.231750,330.092926 
	C319.359100,330.092926 316.818726,330.092926 313.410614,330.092926 
	C313.410614,321.467682 313.410614,312.997467 313.410614,304.527283 
	C312.393463,312.164642 312.398102,319.781006 312.389496,327.397369 
	C312.387817,328.885590 312.612915,330.780792 310.525482,330.852722 
	C307.974060,330.940674 308.487122,328.936523 308.523163,327.251678 
	C308.637024,321.925415 308.692444,316.596802 308.683624,311.269257 
	C308.667694,301.621124 308.641541,301.621155 299.012421,302.992188 
	C299.012421,302.992188 299.048157,302.969849 298.211029,302.860870 
M244.110703,796.502625 
	C247.194717,803.196838 250.958847,809.455688 256.059967,814.825867 
	C261.581787,820.639099 271.464722,822.406921 278.670715,818.927917 
	C281.801300,817.416504 284.138123,815.362061 284.805298,811.627441 
	C285.509155,807.687744 287.032013,803.981750 288.919708,800.421509 
	C290.627197,797.201050 293.127655,795.240723 296.793793,795.151489 
	C300.201813,795.068542 302.247284,797.195984 303.824219,799.957825 
	C305.993958,803.757812 307.599396,807.798950 308.255280,812.096130 
	C308.652435,814.698303 309.945312,816.265930 312.011627,817.608887 
	C320.547455,823.156311 332.456818,821.190125 339.056854,813.135803 
	C344.065918,807.022888 347.271362,799.827881 351.246002,793.093506 
	C352.156952,791.550049 353.058502,789.364685 355.283142,790.279602 
	C357.226410,791.078796 357.085266,793.233276 356.802399,795.122192 
	C356.496002,797.168274 355.599670,799.278748 357.172485,801.310120 
	C361.011871,800.869202 362.784363,798.223389 364.231567,795.396729 
	C368.213623,787.618713 370.533112,779.338562 371.774139,770.682861 
	C372.413116,766.226501 372.312836,761.697998 372.554443,757.161316 
	C375.396851,757.533997 375.412811,759.229309 375.415802,760.645508 
	C375.445618,774.757019 372.407135,788.081604 364.752655,800.098083 
	C362.611725,803.459106 359.197998,805.009399 355.254730,804.334595 
	C351.493134,803.690979 353.837738,799.799927 352.085846,797.401245 
	C349.720978,802.004822 347.505280,806.318054 345.255737,810.697021 
	C355.887939,814.559143 363.756012,811.822510 369.006927,802.349365 
	C374.655121,792.159607 377.599182,781.020264 378.549927,769.486633 
	C379.141296,762.312378 380.474091,754.792419 375.072479,748.422180 
	C373.777039,746.894409 374.217133,744.854614 375.615540,743.369568 
	C378.494720,740.312073 378.741241,736.624023 378.736969,732.683899 
	C378.675018,675.685669 378.609772,618.687256 378.770935,561.689392 
	C378.790436,554.794189 377.756561,548.432861 374.130402,542.608887 
	C371.820648,538.899170 371.849518,535.383423 374.422760,531.928650 
	C378.367676,526.632446 378.899384,521.324524 374.778931,515.862061 
	C372.809875,513.251709 373.056213,510.880493 375.024750,508.160339 
	C378.319122,503.608063 379.877472,498.386414 379.835846,492.678650 
	C379.751953,481.179901 379.842682,469.679901 379.763885,458.181091 
	C379.730957,453.376221 378.989105,448.671906 376.950439,443.831726 
	C372.821350,447.181458 368.259460,448.479248 363.496765,449.400757 
	C345.262299,452.928802 326.795074,453.806854 308.303680,454.150391 
	C293.147125,454.432007 277.966949,454.753204 262.842499,453.305389 
	C258.379272,452.878143 256.190918,453.961304 255.879745,458.993561 
	C254.911591,474.650360 255.366272,490.296265 255.580414,505.948120 
	C255.601669,507.502441 256.721191,509.274628 254.408325,510.127808 
	C252.568237,509.840271 252.523819,508.467682 252.487183,507.107056 
	C252.361694,502.447449 252.146317,497.787598 252.146133,493.127838 
	C252.145660,481.301727 251.706039,469.468689 252.660812,457.653625 
	C252.816086,455.731995 253.318741,453.605225 250.804459,452.517914 
	C240.447464,448.039185 235.362579,451.092987 235.185684,462.332214 
	C234.981155,475.327972 235.158463,488.329468 235.103867,501.328186 
	C235.096848,502.997375 236.040451,504.993073 234.040527,506.260193 
	C231.875916,505.956940 231.807312,504.283997 231.839157,502.859680 
	C232.200119,486.722748 230.421722,470.525024 232.949921,454.461731 
	C233.446671,451.305511 232.981094,449.855225 229.695984,449.269196 
	C226.767731,448.746735 223.876572,447.809845 221.098770,446.723999 
	C219.275589,446.011292 217.304977,444.887939 217.433685,442.474945 
	C217.557236,440.158630 219.449982,439.132233 221.319290,438.334106 
	C226.118301,436.285004 231.249710,435.487183 236.357758,434.827484 
	C239.525162,434.418365 241.345123,432.990356 242.850403,430.211304 
	C247.212265,422.158447 251.793808,414.220490 256.458405,406.337585 
	C258.507874,402.874146 263.048645,401.941467 267.494263,404.007233 
	C271.302734,405.776947 268.690277,408.653107 268.148407,410.905731 
	C266.531128,417.628784 263.656036,424.026062 262.310181,431.730957 
	C300.177643,431.214050 337.588654,429.174500 374.353241,438.106049 
	C375.252533,434.744019 373.705444,432.437195 372.573792,430.109863 
	C363.293762,411.024231 350.052582,394.699707 335.997711,379.085571 
	C330.215515,372.661896 326.466492,366.371979 327.457581,357.390167 
	C328.132935,351.269623 327.433441,350.892578 320.982178,351.296265 
	C304.166870,352.348511 287.361145,352.723480 270.567657,351.136841 
	C266.558258,350.758087 265.025543,352.247681 265.390442,356.175629 
	C265.574646,358.158264 265.224579,360.195099 265.454681,362.167938 
	C266.016937,366.988403 264.280975,370.724670 261.123962,374.349304 
	C253.905518,382.636902 246.890030,391.112122 240.050171,399.716248 
	C227.378494,415.656433 216.488159,432.632904 213.831909,453.367584 
	C212.157516,466.437927 213.412415,479.666748 213.182236,492.821594 
	C213.091171,498.025299 214.308334,502.836761 217.333832,506.942413 
	C219.801743,510.291412 219.821732,513.227173 217.639145,516.556824 
	C214.224777,521.765747 214.367493,526.932129 218.302414,531.812378 
	C221.252670,535.471313 220.854477,538.984558 218.648819,542.874451 
	C216.191681,547.207825 214.219315,551.654541 214.230179,556.965759 
	C214.350204,615.630432 214.312531,674.295349 214.322708,732.960205 
	C214.322968,734.459351 213.779114,736.413269 214.511337,737.383911 
	C219.319977,743.758362 217.183929,749.519958 214.196594,755.904480 
	C211.900833,760.810913 213.640167,766.457275 214.347351,771.708923 
	C215.914520,783.346436 218.685455,794.654419 225.518799,804.496521 
	C230.961502,812.335693 238.835907,814.443970 248.136307,810.529297 
	C245.729309,806.184570 243.342957,801.877136 240.775085,797.242065 
	C239.935165,799.934204 241.345657,803.489807 237.681396,804.119141 
	C234.299835,804.699890 230.994965,804.035583 228.570419,801.216797 
	C227.815460,800.339111 227.104202,799.379517 226.584839,798.350403 
	C220.795746,786.879395 217.678757,774.694153 217.180542,761.871460 
	C217.106918,759.976624 216.838715,757.535583 219.331970,756.692383 
	C220.780670,757.515808 220.521881,758.558899 220.476990,759.539124 
	C219.915146,771.805664 223.197815,783.263306 227.917435,794.393616 
	C228.621231,796.053406 229.699738,797.597290 230.821121,799.024902 
	C231.907913,800.408508 233.527176,801.156128 235.271957,800.566467 
	C237.127960,799.939148 236.589401,798.154724 236.724823,796.708435 
	C236.930222,794.514771 235.763260,792.010559 238.011398,790.251709 
	C240.817841,790.128113 241.148407,793.108154 243.344498,794.430908 
	C243.541412,794.881287 243.738327,795.331604 244.110703,796.502625 
M308.490662,450.757080 
	C326.308289,450.609741 344.042969,449.323486 361.644897,446.548889 
	C365.210266,445.986847 369.138885,445.784973 371.913574,442.562042 
	C369.835785,440.464447 367.493500,439.712585 365.014465,439.288910 
	C331.529816,433.566193 297.813416,433.630829 264.034912,435.259857 
	C262.463989,435.335632 260.915375,435.650665 260.461212,437.387238 
	C259.468262,441.183899 257.822662,444.875092 258.162903,449.473999 
	C274.649170,451.632416 291.092194,450.634430 308.490662,450.757080 
M292.802795,335.756500 
	C284.018799,335.049347 275.167328,335.561066 266.411011,334.250671 
	C264.855621,334.017914 262.726562,333.699829 262.566620,336.158173 
	C262.420258,338.407501 264.355835,338.699005 266.033875,338.878784 
	C270.991608,339.410004 275.947113,340.065948 280.921478,340.319122 
	C296.388092,341.106262 311.848480,341.258667 327.223816,338.897980 
	C329.152954,338.601746 331.010773,338.067963 330.569702,335.545563 
	C330.115204,332.946381 328.090332,333.885071 326.578949,334.133636 
	C315.685455,335.924988 304.667267,335.178406 292.802795,335.756500 
M263.365173,415.976837 
	C263.709229,414.869110 264.248566,413.779663 264.354523,412.649567 
	C264.544220,410.626343 267.074768,408.098633 263.578888,406.704834 
	C260.402191,405.438324 259.133972,408.008942 257.863464,410.130310 
	C254.202957,416.242218 250.570084,422.371918 247.034271,428.556335 
	C246.279419,429.876678 244.896805,431.221100 245.950821,433.032196 
	C257.270691,433.922241 258.036865,433.427582 261.054840,423.372833 
	C261.721497,421.151855 262.410889,418.937683 263.365173,415.976837 
M255.238098,444.647491 
	C255.654327,442.873657 256.130371,441.111206 256.469574,439.322754 
	C256.793762,437.613464 256.249512,436.567719 254.301437,436.177948 
	C245.525635,434.422180 240.263870,438.200470 239.242447,447.220673 
	C242.494690,448.598816 246.082108,448.179291 249.424500,448.977051 
	C252.770126,449.775604 254.537918,448.760040 255.238098,444.647491 
M288.320770,810.106628 
	C288.346130,810.951477 288.502808,812.189209 289.479309,811.857544 
	C294.598145,810.119141 299.687958,810.541504 305.066406,812.548340 
	C304.532471,808.461792 303.458038,805.551086 301.943634,802.762024 
	C300.705627,800.482056 299.208038,798.421021 296.382843,798.454041 
	C293.519928,798.487610 292.073395,800.707458 290.979156,802.987061 
	C289.980957,805.066528 289.245209,807.271912 288.320770,810.106628 
M319.700623,348.051178 
	C321.858124,347.882660 324.025391,347.792145 326.170349,347.523438 
	C328.257385,347.261932 330.321533,346.817963 332.395752,346.454132 
	C309.208679,348.801575 286.208252,348.394135 263.179688,346.430542 
	C281.650848,349.482300 300.206970,349.276428 319.700623,348.051178 
M222.005569,443.052307 
	C231.307159,449.510101 236.719147,447.957794 237.613602,437.822968 
	C232.191147,439.408325 226.389252,438.392975 222.005569,443.052307 
M294.497803,298.930450 
	C299.602814,298.930450 304.707825,298.930450 309.812866,298.930450 
	C298.925018,296.692719 288.038727,297.059174 277.146484,298.931915 
	C282.597687,298.931915 288.048920,298.931915 294.497803,298.930450 
M305.242767,343.975677 
	C299.287415,343.975677 293.332031,343.975677 287.376678,343.975677 
	C298.789642,344.702393 310.193604,344.963715 321.520538,342.922180 
	C316.409210,343.258728 311.297913,343.595245 305.242767,343.975677 
M317.265442,321.874146 
	C317.487030,322.727264 316.846863,323.858215 318.434326,324.587585 
	C319.106262,320.994202 318.863220,317.570251 318.553986,312.882050 
	C316.942871,316.308167 317.359955,318.754456 317.265442,321.874146 
M279.455719,343.304047 
	C275.350708,342.983246 271.245697,342.662445 267.140686,342.341614 
	C271.863922,344.012054 276.715027,343.785950 281.571747,343.502960 
	C281.081512,343.447998 280.591309,343.393005 279.455719,343.304047 
z"/>
<path fill="#000000" opacity="1.000000" stroke="none" 
	d="
M676.069336,800.248291 
	C667.171387,801.154175 658.718262,802.050781 650.484985,804.222168 
	C640.640442,806.818604 633.167358,812.251587 628.914246,821.898071 
	C625.688232,829.215088 619.283325,833.734375 612.764709,837.770142 
	C580.880005,857.510986 541.806885,853.181641 514.231506,827.005005 
	C507.789612,820.889832 502.021179,814.241638 498.300842,806.057739 
	C495.447449,799.781067 496.671051,796.783020 503.258148,794.733521 
	C509.168030,792.894714 515.314575,792.224060 521.490295,792.045227 
	C549.295715,791.239807 576.629700,794.860413 603.628723,801.187988 
	C612.191467,803.194824 620.161377,803.540955 628.140015,798.757629 
	C640.916748,791.097656 655.569824,789.929077 669.894897,787.959106 
	C697.914551,784.105896 725.972595,780.553040 753.940674,776.302917 
	C790.615356,770.729736 827.341003,765.485840 864.070312,760.280945 
	C872.767334,759.048523 881.539917,757.444885 890.363220,759.616272 
	C894.206055,760.562012 897.963196,761.690125 898.315918,766.528198 
	C898.661682,771.270081 895.408386,773.369507 891.614258,774.693665 
	C883.043396,777.685120 873.982666,778.124146 865.090332,779.160095 
	C818.466553,784.591248 771.815552,789.790283 725.167908,795.015015 
	C708.961060,796.830261 692.736511,798.487366 676.069336,800.248291 
M814.086243,770.765259 
	C792.996704,773.795288 771.892761,776.728882 750.821167,779.879211 
	C722.840332,784.062378 694.848694,788.130432 666.752747,791.501526 
	C654.550842,792.965637 642.266846,794.561890 631.138123,800.514526 
	C624.066101,804.297424 617.051941,808.421387 609.189270,805.331665 
	C604.243347,819.386597 591.672546,819.304138 580.918396,822.807983 
	C584.883240,824.233704 588.953613,824.010071 592.846619,824.290833 
	C600.955627,824.875671 609.152344,825.640869 617.160400,823.289307 
	C619.787903,822.517761 622.244568,821.362122 622.774658,818.259521 
	C623.300842,815.179382 621.417725,813.331116 619.225830,811.609924 
	C617.905823,810.573181 615.654785,810.352478 615.649902,807.374939 
	C621.516113,807.564331 624.234192,811.639038 627.095947,816.442871 
	C627.307251,812.897705 628.853088,810.794617 630.656494,808.841797 
	C635.639099,803.446533 641.677002,799.799622 648.756836,797.820740 
	C659.071533,794.937561 669.716614,794.069824 680.273499,792.816772 
	C705.561279,789.815063 730.889160,787.152283 756.198364,784.330261 
	C787.962769,780.788513 819.745972,777.402466 851.476624,773.579895 
	C863.674133,772.110413 876.116211,772.237793 888.011597,768.587097 
	C890.267273,767.894836 892.964050,767.796509 894.539612,764.795715 
	C889.940247,761.362427 884.828003,761.389893 879.758057,761.816040 
	C858.010864,763.644043 836.587341,767.898560 814.086243,770.765259 
M575.318115,846.860535 
	C591.236450,845.943054 605.261108,840.250854 618.371216,830.103455 
	C578.271912,833.034729 541.284668,823.304810 504.801270,809.456726 
	C510.728424,828.637634 546.226379,847.543945 575.318115,846.860535 
M550.911987,798.733154 
	C536.142639,798.164490 521.332947,796.929138 506.104706,800.385986 
	C508.548737,804.446533 511.735077,805.335266 514.599243,806.409058 
	C532.625488,813.166992 550.656860,819.954834 570.390747,819.542786 
	C580.613770,819.329407 590.736572,818.708679 599.795532,813.248901 
	C601.677673,812.114563 604.095398,811.175415 604.077515,807.415161 
	C587.084595,802.490784 569.489685,800.497925 550.911987,798.733154 
z"/>
<path fill="#000000" opacity="1.000000" stroke="none" 
	d="
M732.884766,472.226746 
	C735.733643,469.836792 738.524170,468.324982 741.104004,471.987518 
	C743.026001,474.716125 742.530273,477.381653 740.051392,479.535126 
	C736.728943,482.421509 733.386963,480.491516 731.902710,474.554810 
	C732.162048,473.629028 732.452820,473.068329 732.884766,472.226746 
z"/>
<path fill="#000000" opacity="1.000000" stroke="none" 
	d="
M243.194183,794.231750 
	C238.935379,784.951355 234.416656,776.008484 233.212723,765.919312 
	C232.955795,763.766235 231.947739,761.368469 234.836578,759.340393 
	C239.342834,773.713806 237.814041,791.463928 257.447021,797.363220 
	C256.440918,790.898376 255.419846,785.085510 254.659653,779.238647 
	C253.924484,773.584290 252.267731,767.889160 254.524307,762.165649 
	C257.240936,766.470886 256.180908,771.377625 257.205322,775.918823 
	C258.480469,781.571167 259.331970,787.343262 259.971527,793.107483 
	C260.517731,798.030212 263.075745,800.823914 267.551392,802.541260 
	C271.257172,803.963135 274.771210,805.884644 279.001404,807.882996 
	C283.423706,802.172974 284.253357,792.967163 292.933044,791.020996 
	C293.908783,791.992615 293.893738,792.789612 293.334473,793.140625 
	C287.752197,796.643616 285.126892,802.270142 283.075684,808.068054 
	C278.165405,821.947510 259.697205,818.996948 253.859924,809.881714 
	C252.071136,807.088379 250.338806,804.192505 249.103622,801.132446 
	C248.149689,798.769287 246.687531,797.258423 244.244339,795.975769 
	C243.738327,795.331604 243.541412,794.881287 243.194183,794.231750 
M274.698364,809.438965 
	C271.289246,807.739136 267.907684,805.980957 264.463074,804.356384 
	C261.173492,802.804932 257.911591,803.058716 254.646439,804.566589 
	C257.763153,812.548279 267.196503,816.841614 274.207916,813.636414 
	C275.891693,812.866699 278.652252,812.053345 274.698364,809.438965 
z"/>
<path fill="#000000" opacity="1.000000" stroke="none" 
	d="
M487.440369,619.664795 
	C488.417084,634.415955 489.397675,648.698975 490.319183,662.985901 
	C491.540314,681.918518 492.726379,700.853516 493.906036,719.788757 
	C494.651306,731.751587 495.313080,743.719727 496.106842,755.679260 
	C496.356689,759.443665 494.957520,760.912354 491.146423,760.223938 
	C483.584198,758.858032 476.188171,756.947144 469.025208,754.138855 
	C466.309906,753.074280 464.899872,751.436035 464.506195,748.297668 
	C460.634857,717.435364 456.639038,686.588379 452.571533,655.751099 
	C449.483368,632.338623 446.220062,608.949341 443.074646,585.544373 
	C441.612549,574.664978 440.221161,563.775818 438.865906,552.882629 
	C438.697357,551.527710 438.037140,549.894714 440.246277,548.619446 
	C443.473389,552.332031 442.472778,557.128296 443.063385,561.237427 
	C446.728638,586.739075 450.023682,612.294678 453.346985,637.844604 
	C457.741791,671.632935 462.049896,705.432617 466.394928,739.227417 
	C466.734131,741.865723 467.127716,744.498657 467.390228,747.144653 
	C467.591217,749.170105 468.502594,750.659241 470.391876,751.369568 
	C476.478302,753.657532 482.622406,755.717163 489.126678,756.559692 
	C491.877655,756.916016 492.813721,755.791382 492.677673,753.264160 
	C492.346466,747.111633 492.059082,740.956543 491.686127,734.806580 
	C489.973053,706.557800 488.279968,678.307739 486.496887,650.063354 
	C484.588196,619.828979 482.570282,589.601562 480.670532,559.366638 
	C480.565826,557.700378 479.763031,555.723389 482.754303,553.349304 
	C485.302307,575.819458 485.842712,597.555115 487.440369,619.664795 
z"/>
<path fill="#000000" opacity="1.000000" stroke="none" 
	d="
M476.483032,469.833405 
	C477.841949,487.324829 479.163147,504.385742 480.484314,521.446655 
	C476.487793,518.834229 472.486786,470.025177 474.605713,464.252441 
	C477.040253,465.383392 476.086823,467.647858 476.483032,469.833405 
z"/>
<path fill="#000000" opacity="1.000000" stroke="none" 
	d="
M371.645508,584.000183 
	C371.645599,577.038635 371.645599,570.577087 371.645599,564.115173 
	C368.158234,562.977783 365.644287,564.814270 363.002655,565.371216 
	C346.779022,568.791626 330.302185,569.560852 313.827179,570.085266 
	C296.504761,570.636597 279.166443,570.473511 261.867523,569.244141 
	C257.605530,568.941162 255.964905,570.110596 255.978256,574.681519 
	C256.143127,631.179932 256.144318,687.678894 256.149841,744.177673 
	C256.150055,746.372559 256.887543,748.792175 254.907837,751.018555 
	C251.943314,749.274109 252.836517,746.531250 252.830475,744.333191 
	C252.733353,709.000732 252.728027,673.667969 252.706604,638.335327 
	C252.693771,617.169067 252.590042,596.001953 252.761688,574.837158 
	C252.797470,570.424805 251.990372,567.904724 246.897385,567.999023 
	C243.635330,568.059509 240.355774,567.175110 236.185242,566.587708 
	C236.185242,597.320984 236.194885,627.559448 236.182541,657.797913 
	C236.170242,687.916931 236.135895,718.035950 236.110321,749.266418 
	C231.698517,746.609009 232.828705,743.836731 232.826019,741.609558 
	C232.759384,686.277405 232.780273,630.945129 232.776062,575.612915 
	C232.775284,565.373108 232.756302,565.373108 222.292633,563.403870 
	C220.619217,566.640381 221.574387,570.236633 221.635773,573.514587 
	C222.556168,622.668701 220.820267,671.817322 221.478088,720.965637 
	C221.583099,728.810730 218.607468,737.419006 226.810333,743.962830 
	C222.333832,744.210205 219.555603,741.784424 218.800446,737.716003 
	C218.529922,736.258484 218.606812,734.727478 218.606857,733.230042 
	C218.608948,676.231201 218.718170,619.231873 218.483307,562.234070 
	C218.459244,556.390808 220.539841,553.454163 225.787598,552.291260 
	C230.798645,551.180786 235.798050,550.251526 235.174484,543.296143 
	C235.154816,543.076843 235.929047,542.786377 236.349640,542.518616 
	C239.323868,543.970032 237.083099,546.863220 238.585892,549.435730 
	C243.776566,547.878296 249.987595,549.672363 255.101105,544.832458 
	C256.260620,547.207336 258.414001,547.163269 261.031433,546.995789 
	C293.859589,544.894531 326.603027,545.500366 359.175232,550.581177 
	C359.504578,550.632568 359.836853,550.668396 360.163635,550.732361 
	C374.364471,553.513550 374.367798,553.518677 374.365234,567.960327 
	C374.355469,622.959351 374.320282,677.958313 374.385010,732.957275 
	C374.390259,737.421753 373.410645,741.188049 369.704285,743.920166 
	C368.926056,744.493774 368.122711,745.266785 366.932617,744.248352 
	C366.907135,743.900696 366.662140,743.177490 366.869720,743.007568 
	C372.451599,738.440735 371.670685,732.145996 371.666351,725.995972 
	C371.633148,678.830688 371.646515,631.665405 371.645508,584.000183 
M327.976562,566.394409 
	C342.523865,564.907898 357.424744,565.362183 371.529572,559.153259 
	C364.169586,550.800415 274.165405,545.007874 257.255341,551.359802 
	C261.335266,552.293152 265.086517,550.824829 268.848663,551.042297 
	C272.399780,551.247559 276.329254,549.959656 279.811401,553.077454 
	C276.017731,556.059692 272.291473,553.810669 268.821075,554.230103 
	C265.288818,554.657104 261.596954,553.903259 257.560089,555.661621 
	C264.251709,556.807068 270.664429,554.996277 277.801117,558.119934 
	C270.050629,561.662476 263.134766,558.392639 256.791565,560.663757 
	C273.509338,563.122437 290.373047,562.164490 307.157410,563.178772 
	C290.662628,567.616272 273.998810,565.096130 257.408936,565.370972 
	C280.600098,567.386353 303.818512,567.238708 327.976562,566.394409 
M252.623276,558.316589 
	C252.726532,556.574707 252.149704,555.085999 250.184158,555.506897 
	C244.787872,556.662415 239.104477,556.728821 233.923111,559.058594 
	C235.947342,563.913086 243.776199,566.096436 251.672028,564.088562 
	C249.087067,563.385437 247.020081,562.921326 245.023575,562.248230 
	C243.513489,561.738953 241.343430,561.200378 242.395447,558.985596 
	C243.348251,556.979675 244.792038,558.551025 246.135849,559.070251 
	C248.210770,559.872009 250.455719,562.233093 252.623276,558.316589 
M228.179810,554.949707 
	C225.876022,555.635681 223.240219,555.711609 221.704376,558.579651 
	C224.295532,560.973694 227.363800,561.718933 231.347870,562.018127 
	C229.014160,558.891418 230.895264,556.766785 233.102081,554.197144 
	C231.102936,554.454346 229.979538,554.598877 228.179810,554.949707 
M249.372635,551.255005 
	C245.562790,551.810364 241.625992,551.739502 238.068512,553.617554 
	C242.315384,553.366882 246.483505,552.652405 250.634949,551.851624 
	C251.071304,551.767456 250.959625,551.320129 250.442871,551.265137 
	C250.277481,551.247498 250.110199,551.247253 249.372635,551.255005 
z"/>
<path fill="#000000" opacity="1.000000" stroke="none" 
	d="
M309.802002,800.298645 
	C311.267120,802.722961 311.747742,805.296082 313.866577,807.256165 
	C326.358612,802.718811 337.902191,796.168945 348.364197,788.443848 
	C350.281433,790.079346 349.680969,790.979736 349.238770,791.857056 
	C346.621735,797.049133 344.173767,802.337097 341.323395,807.398193 
	C338.034210,813.238464 332.927429,816.645569 326.194611,817.577087 
	C319.522125,818.500305 314.169434,816.331116 311.209473,810.288696 
	C308.125977,803.994141 305.332184,797.646423 299.709808,793.093323 
	C299.482605,792.909363 299.680817,792.200073 299.680817,790.995789 
	C304.829926,792.355347 307.326874,796.048584 309.802002,800.298645 
M340.491180,802.980469 
	C341.725616,800.546265 342.960022,798.112122 344.194427,795.677917 
	C335.222687,801.901489 324.915924,805.265320 315.578400,810.721863 
	C317.923340,813.915039 320.612549,814.806396 323.747314,814.785034 
	C331.719879,814.730652 336.401428,809.877502 340.491180,802.980469 
z"/>
<path fill="#000000" opacity="1.000000" stroke="none" 
	d="
M376.108582,451.557373 
	C377.200684,467.415649 377.428619,482.866913 376.511353,498.316345 
	C376.286835,502.098022 375.283813,505.669647 371.090210,507.198120 
	C370.607269,506.413177 370.230408,505.979919 370.300293,505.888641 
	C374.603912,500.268372 373.792206,493.697906 373.658966,487.314301 
	C373.416260,475.689941 374.418030,464.042480 373.022858,452.438324 
	C372.889343,451.327881 372.567627,449.926392 374.008392,449.450745 
	C375.284851,449.029327 375.582611,450.284119 376.108582,451.557373 
z"/>
<path fill="#000000" opacity="1.000000" stroke="none" 
	d="
M219.414505,493.311218 
	C219.381012,495.117035 220.422028,496.696747 218.721680,497.789825 
	C214.536362,493.946075 214.777725,453.127686 219.596146,447.778137 
	C219.024399,462.817047 219.244766,477.848846 219.414505,493.311218 
z"/>
<path fill="#000000" opacity="1.000000" stroke="none" 
	d="
M264.054352,516.403076 
	C253.869431,515.674744 244.074509,515.099487 234.808945,511.706451 
	C234.894989,511.099121 234.981033,510.491760 235.067078,509.884430 
	C246.002243,511.202148 256.937408,512.519897 267.939148,513.845642 
	C267.592743,516.988220 265.813568,516.301331 264.054352,516.403076 
z"/>
<path fill="#000000" opacity="1.000000" stroke="none" 
	d="
M248.525574,754.510376 
	C254.762924,755.551636 260.817474,755.215454 266.288208,758.074097 
	C255.219482,759.082092 244.539520,757.544189 234.231934,753.129944 
	C239.008865,751.762146 243.468048,754.143738 248.525574,754.510376 
z"/>
<path fill="#000000" opacity="1.000000" stroke="none" 
	d="
M237.392090,540.342773 
	C235.281586,539.075928 234.761902,537.386597 237.380569,537.604065 
	C246.306396,538.345154 255.190994,539.592041 264.082489,540.715881 
	C264.680664,540.791443 265.142181,541.483276 264.843323,542.986938 
	C255.748672,544.040039 246.785461,541.686768 237.392090,540.342773 
z"/>
<path fill="#000000" opacity="1.000000" stroke="none" 
	d="
M237.108582,533.098145 
	C236.237473,534.529358 234.967300,534.654907 234.719925,533.521851 
	C233.435257,527.637573 233.218231,521.725037 235.384521,515.855530 
	C238.314667,521.242065 236.847046,527.076477 237.108582,533.098145 
z"/>
<path fill="#000000" opacity="1.000000" stroke="none" 
	d="
M252.928192,527.949402 
	C253.413147,524.449341 251.821396,520.976318 255.427582,517.533142 
	C256.933472,524.312012 256.211273,530.202454 256.013611,537.247498 
	C251.951263,534.233948 253.369614,531.058472 252.928192,527.949402 
z"/>
<path fill="#000000" opacity="1.000000" stroke="none" 
	d="
M374.740906,527.216797 
	C373.597229,529.556213 373.010406,531.914062 369.111298,532.754761 
	C371.339905,526.987427 373.622833,521.697876 369.951630,516.269287 
	C374.483398,518.618835 375.863892,522.181824 374.740906,527.216797 
z"/>
<path fill="#000000" opacity="1.000000" stroke="none" 
	d="
M218.809692,527.749512 
	C216.825821,521.184021 218.010269,517.792480 223.745560,515.994934 
	C220.035980,521.615417 220.993378,526.591431 224.697250,531.689270 
	C220.857056,531.947754 220.174362,529.684082 218.809692,527.749512 
z"/>
<path fill="#000000" opacity="1.000000" stroke="none" 
	d="
M298.994690,303.003174 
	C301.121674,303.873077 301.123718,305.731812 301.140198,307.602783 
	C301.198883,314.259460 301.245728,320.916412 301.352539,327.572357 
	C301.391418,329.996155 300.782104,331.664917 297.918945,330.763672 
	C296.414551,330.290131 295.001068,331.705414 293.420959,330.679108 
	C293.420959,321.765289 293.420959,312.779205 293.420959,303.793152 
	C293.955841,303.769440 294.490692,303.745697 295.025574,303.721985 
	C297.610382,311.112915 294.854523,319.164062 297.103180,328.031281 
	C298.772278,319.059845 296.535797,311.232971 298.832947,303.339050 
	C299.048157,302.969849 299.012421,302.992188 298.994690,303.003174 
z"/>
<path fill="#000000" opacity="1.000000" stroke="none" 
	d="
M306.640930,328.020660 
	C306.813873,330.057709 306.124969,331.014343 304.417816,330.835785 
	C303.485321,330.738251 302.992004,329.989105 303.008087,329.079651 
	C303.151367,320.968964 303.312531,312.858459 303.529724,304.749573 
	C303.539185,304.396667 304.143982,304.059692 305.233704,302.913635 
	C307.484497,311.536011 305.536804,319.698730 306.640930,328.020660 
z"/>
<path fill="#000000" opacity="1.000000" stroke="none" 
	d="
M276.999695,309.236389 
	C277.296570,306.936707 276.256256,304.727875 278.463898,303.389465 
	C281.443939,307.743256 280.925110,328.621368 276.996460,330.590851 
	C276.996460,323.372925 276.996460,316.537109 276.999695,309.236389 
z"/>
<path fill="#000000" opacity="1.000000" stroke="none" 
	d="
M281.874695,323.840210 
	C282.204987,316.862793 281.392212,310.281738 282.407593,303.365326 
	C285.723724,304.556061 285.100647,306.639191 285.143524,308.261749 
	C285.306274,314.420380 285.326080,320.582672 285.419495,326.743286 
	C285.443817,328.348328 286.115692,330.594360 283.718903,330.649811 
	C281.354095,330.704468 281.881012,328.389374 281.803467,326.814087 
	C281.762634,325.984955 281.841766,325.149933 281.874695,323.840210 
z"/>
<path fill="#000000" opacity="1.000000" stroke="none" 
	d="
M287.642761,309.270416 
	C287.959991,307.178162 286.868195,305.162720 288.936646,303.889587 
	C291.044464,304.874207 290.243195,306.762421 290.284332,308.222687 
	C290.466187,314.678925 290.447021,321.140839 290.633270,327.596863 
	C290.673645,328.997650 290.999359,330.552429 289.242920,330.714294 
	C287.133942,330.908691 287.123779,329.214874 287.175385,327.604309 
	C287.366150,321.646881 287.491943,315.687378 287.642761,309.270416 
z"/>
</svg>