<svg version="1.1" id="Layer_1" xmlns="http://www.w3.org/2000/svg" xmlns:xlink="http://www.w3.org/1999/xlink" x="0px" y="0px"
	 width="100%" viewBox="0 0 1024 1024" enable-background="new 0 0 1024 1024" xml:space="preserve">
<path fill="#000000" opacity="1.000000" stroke="none" 
	d="
M326.957520,927.535461 
	C326.931213,897.254761 327.109222,867.421326 326.815216,837.592651 
	C326.692505,825.139465 331.433502,816.039001 342.499664,810.310303 
	C345.742218,808.631653 348.001801,807.568115 345.966766,802.541260 
	C344.080017,797.880554 344.767670,792.070007 345.439453,786.762451 
	C345.714630,784.588684 347.348297,783.712769 349.298340,783.468262 
	C358.261627,782.344543 367.234222,782.213745 376.183685,783.571411 
	C379.509338,784.075928 381.059906,786.113220 380.791046,789.542236 
	C380.377350,794.817871 381.267548,800.166138 379.507599,805.379333 
	C378.538422,808.250183 381.226288,808.987000 383.052643,809.977051 
	C391.352631,814.476440 397.707001,820.503967 398.887878,830.436279 
	C399.279358,833.729187 399.260101,837.082153 399.264954,840.407837 
	C399.295624,861.542114 399.280548,882.676453 399.587433,903.898132 
	C399.550140,895.207153 404.583008,888.552307 408.212830,881.314575 
	C410.043030,877.665222 413.111816,873.653748 407.082672,870.504150 
	C406.118011,870.000183 405.937927,867.859558 405.534668,866.436096 
	C400.597961,849.010620 400.163910,831.373474 402.841766,813.535950 
	C405.666992,794.717163 406.462311,775.750122 405.943695,756.755432 
	C405.391846,736.544434 407.734528,716.539795 409.363525,696.465637 
	C410.332581,684.523804 410.397461,672.508911 410.894867,660.527954 
	C411.024750,657.398926 410.854279,654.195740 412.769928,651.057190 
	C414.674011,652.515869 414.501862,654.616882 414.902557,656.426575 
	C417.322571,667.357117 418.002136,678.507874 419.047760,689.612122 
	C419.410583,693.465271 419.893829,697.464294 422.409424,700.455811 
	C428.302704,707.464172 429.009430,715.652771 427.989014,724.063965 
	C427.099945,731.392456 427.196777,738.694031 427.240692,746.014099 
	C427.294739,755.015015 427.315247,763.960693 425.570618,772.889587 
	C424.488953,778.425293 424.185699,784.230469 427.633179,789.339844 
	C429.485901,792.085632 427.779022,795.118225 428.400970,799.050842 
	C434.041809,784.505310 437.047546,770.332458 440.703033,756.356201 
	C446.180603,735.413574 450.797180,714.280334 454.333099,692.917664 
	C455.303650,687.053955 455.353119,681.327637 452.305573,675.917603 
	C449.261353,670.513306 449.269592,664.784851 450.786163,658.939209 
	C452.428650,652.608093 452.472015,646.068481 452.926880,639.621094 
	C453.465607,631.985229 456.606110,626.548889 463.859100,623.916687 
	C468.370850,622.279358 469.807465,618.914612 469.901428,614.588135 
	C470.010620,609.561157 470.585449,604.345947 475.991882,602.532227 
	C481.668304,600.628052 487.040314,601.869507 491.418762,606.685974 
	C495.134766,610.773682 497.566956,610.140991 499.847321,605.099792 
	C500.121307,604.494080 500.488312,603.879089 500.559021,603.240356 
	C502.058350,589.703125 506.321930,576.612671 506.860718,562.895386 
	C507.049744,558.082214 504.036865,554.324768 504.043396,549.422363 
	C504.051788,543.117432 503.723267,536.769043 504.458679,530.519348 
	C505.468933,521.934021 502.866791,514.448120 498.759979,507.223175 
	C497.570160,505.129974 496.049194,504.276337 493.436707,504.620575 
	C485.667938,505.644318 482.847565,504.103485 479.591736,497.118866 
	C478.265686,494.274139 477.503052,491.164093 476.520020,488.162933 
	C475.565918,485.250122 476.031769,482.940552 479.195465,481.645813 
	C481.190613,480.829254 482.048065,478.933777 482.937439,477.132050 
	C484.632629,473.697906 483.708496,471.723206 479.763794,471.353241 
	C476.286652,471.027100 472.823730,470.459808 469.340942,470.305420 
	C464.886322,470.107910 463.560699,467.762421 464.157043,463.708160 
	C464.677124,460.172333 465.249420,456.620697 463.929932,451.995514 
	C461.502777,456.363190 461.427979,460.135620 461.427979,463.787018 
	C461.427948,468.058685 459.629791,468.909912 455.795746,467.950531 
	C451.120117,466.780579 446.369995,465.852448 441.607971,465.098145 
	C435.860931,464.187836 433.291718,467.871857 435.573364,473.889832 
	C437.762634,472.907227 438.163513,470.577820 439.426056,468.983612 
	C440.215973,467.986206 441.145447,467.259735 442.382843,468.104034 
	C443.408081,468.803589 443.096527,469.858765 442.672638,470.798706 
	C442.193451,471.861298 441.624329,472.883270 441.144226,473.945465 
	C439.223633,478.194519 436.145660,482.317657 435.640442,486.732758 
	C434.267303,498.733429 426.792847,507.330872 420.531128,516.621216 
	C416.977112,521.894226 415.942230,527.603760 415.964600,533.692139 
	C416.039337,554.023743 416.160522,574.355103 416.241486,594.686646 
	C416.279999,604.362854 415.549438,613.988831 414.184540,623.566040 
	C414.031830,624.637695 414.141449,625.862671 412.358612,627.268372 
	C411.852631,623.470093 411.138824,620.284302 411.047180,617.080688 
	C410.308777,591.265686 409.126862,565.446167 409.951172,539.619507 
	C410.721069,515.498169 411.813416,491.353973 418.877075,468.020294 
	C421.094177,460.696350 423.618591,453.495483 424.366364,445.813324 
	C424.609833,443.312408 425.186401,440.945923 423.189117,438.767120 
	C416.640930,431.623749 415.564148,422.950531 417.236511,413.957245 
	C420.476501,396.533844 421.426361,378.955902 421.635468,361.302032 
	C421.714447,354.636688 419.553345,353.432068 413.468719,356.793091 
	C400.825897,363.776764 387.623688,369.175720 373.150970,370.785248 
	C367.037140,371.465179 360.870605,371.890778 354.721130,371.985870 
	C340.538300,372.205170 331.434204,361.013397 335.093597,347.263123 
	C338.671753,333.818298 343.880249,320.841278 353.636353,310.612793 
	C357.789917,306.258148 358.431976,300.158081 362.962738,296.191223 
	C381.419006,280.032043 398.079498,262.091675 414.506195,243.909912 
	C421.815216,235.820023 430.995880,230.371567 441.664520,227.885025 
	C445.800903,226.920944 446.088715,224.879639 445.159821,221.384201 
	C441.185120,206.427658 437.363281,191.430481 433.492584,176.446335 
	C433.201630,175.320007 432.848450,174.192474 432.722748,173.043777 
	C432.199921,168.267090 434.518860,164.741928 438.603149,163.974609 
	C442.276245,163.284531 445.949554,165.718689 447.161072,170.002197 
	C449.288971,177.525665 451.238037,185.099976 453.235504,192.659988 
	C455.614319,201.663391 458.030731,210.657791 460.290588,219.691177 
	C461.024841,222.626068 462.148865,223.663300 465.495636,223.145264 
	C474.699371,221.720718 483.979980,220.771149 493.247009,219.793167 
	C495.367310,219.569412 496.961151,218.951767 498.447479,217.360565 
	C502.450317,213.075165 506.702484,209.075745 512.862671,208.078110 
	C514.256226,207.852448 515.451660,207.143600 515.853821,205.730637 
	C517.442017,200.150681 520.602295,195.467133 516.560425,188.653976 
	C511.493011,180.112076 511.600281,170.122177 517.950500,161.326782 
	C518.837036,160.098923 519.589478,158.989243 519.819214,157.379852 
	C521.273132,147.193192 523.565796,137.237320 528.768616,128.194183 
	C531.390381,123.637337 534.508606,118.937340 539.519531,117.464806 
	C545.926758,115.581963 551.119324,112.052490 556.705872,108.770325 
	C563.646545,104.692589 571.625671,105.481903 579.083557,107.689537 
	C602.239502,114.544022 618.481934,129.031830 625.324463,152.509308 
	C628.798279,164.428238 625.614319,175.393906 616.058472,183.773758 
	C611.987488,187.343674 610.690430,190.615356 614.157043,195.258957 
	C617.197327,199.331436 616.796265,203.575378 614.193115,207.860672 
	C611.938354,211.572403 609.680725,215.255661 606.721252,218.456970 
	C604.992737,220.326721 603.010193,222.286819 600.437134,222.167633 
	C595.333679,221.931213 592.794495,224.955536 590.151367,228.597885 
	C587.152222,232.730927 583.605042,236.466278 579.830811,240.924103 
	C585.002197,244.463531 589.783936,247.695358 594.520874,250.991455 
	C598.213135,253.560608 601.673401,256.511414 605.540771,258.772675 
	C625.666443,270.539948 633.885742,289.054016 636.367920,311.269287 
	C638.508545,330.428711 641.375000,349.506775 643.889038,368.625000 
	C644.387756,372.417572 644.778320,376.225555 645.148621,380.033264 
	C645.312317,381.716858 645.401184,383.796814 643.422913,384.260712 
	C639.297485,385.228149 639.298340,388.128571 639.044617,391.459839 
	C638.324463,400.914520 637.109497,410.331543 636.388977,419.786224 
	C635.325989,433.735504 629.378845,444.854156 618.257324,453.403595 
	C610.325073,459.501373 602.488281,465.729065 593.640503,470.445160 
	C590.281555,472.235565 589.401123,474.129181 590.269714,477.940002 
	C595.903381,502.657837 598.234314,527.833557 600.365906,553.041809 
	C602.807495,581.914795 604.595215,610.818481 605.356323,639.784790 
	C605.395325,641.270874 605.306091,642.829773 606.953857,643.472351 
	C609.073730,643.400452 609.299316,641.593262 610.124573,640.459351 
	C613.333557,636.050354 617.711975,633.852722 623.044006,634.354675 
	C625.733032,634.607727 626.843567,633.726501 628.085876,631.574890 
	C631.516479,625.633301 636.985413,623.067993 643.674744,623.894165 
	C650.352356,624.718750 655.181580,628.391663 656.865906,635.127197 
	C657.542480,637.832703 658.730835,639.130249 661.429504,639.401794 
	C663.437622,639.603882 665.725464,640.098389 666.852844,641.684448 
	C671.329224,647.982300 678.160522,646.955444 684.401245,647.685242 
	C696.144653,649.058655 707.886841,650.479492 719.271729,653.779236 
	C725.987427,655.725647 728.231445,661.718811 724.643433,667.868469 
	C723.646362,669.577271 723.458130,670.817688 724.415649,672.406128 
	C725.518311,674.235291 726.018311,676.164185 724.481262,677.968689 
	C723.237061,679.429443 723.681824,680.656555 724.552368,682.032288 
	C724.986511,682.718445 725.668030,683.852905 725.408264,684.280823 
	C722.392639,689.246033 726.052490,691.620605 729.084717,694.305298 
	C730.160645,695.257874 730.334534,696.625610 730.314392,697.986511 
	C730.265015,701.325073 729.949768,704.545898 734.355713,705.895813 
	C736.067871,706.420349 735.940735,709.018982 736.043945,710.842834 
	C737.365723,734.199341 734.438416,756.461792 719.283752,775.550903 
	C717.976685,777.197327 717.546570,779.103088 717.434387,781.141968 
	C716.043945,806.414062 714.718567,831.690125 713.223572,856.956055 
	C712.033691,877.064941 710.569702,897.157593 709.377014,917.266296 
	C709.113647,921.707947 706.198792,923.647827 702.885132,925.334106 
	C693.270142,930.226746 682.856628,932.500488 672.330872,934.285645 
	C644.667542,938.977356 616.781738,941.014648 588.758179,940.014893 
	C563.291382,939.106262 537.904846,937.053711 513.170349,930.241821 
	C511.725983,929.844055 510.284698,929.422058 508.870880,928.928650 
	C494.321106,923.850037 493.399261,922.107971 492.617767,906.708008 
	C491.360535,881.933838 489.544403,857.188660 488.110809,832.422729 
	C487.167877,816.133606 486.480865,799.829773 485.683136,783.532349 
	C485.588348,781.596497 485.858978,779.594299 484.191101,776.520569 
	C482.452789,791.311340 480.947479,804.819824 479.258667,818.305359 
	C477.315155,833.824646 475.249603,849.328979 473.145172,864.827332 
	C472.630798,868.615356 472.226624,872.457520 466.773590,872.713135 
	C464.513794,872.819092 465.017548,875.574402 464.943085,877.328125 
	C464.525543,887.163269 466.305725,896.886475 466.372742,906.726624 
	C466.441711,916.843506 465.269989,919.253296 455.473328,921.051697 
	C440.581757,923.785217 425.662750,923.501831 410.775330,920.796326 
	C406.834564,920.080078 403.171356,918.651855 399.110352,916.001160 
	C399.110352,920.365845 399.212677,923.983215 399.087158,927.592773 
	C398.881958,933.494263 396.558441,936.220337 390.893097,937.125427 
	C372.506775,940.062805 354.107880,940.326050 335.702393,937.231201 
	C330.425720,936.343872 327.279175,933.524536 326.957520,927.535461 
M487.564148,277.498871 
	C484.236694,274.739075 480.821381,272.886047 476.353210,276.649414 
	C480.563354,277.228149 484.443268,276.537537 488.391083,278.566742 
	C491.323883,280.723175 491.236938,284.686035 493.375946,287.485107 
	C496.222046,286.122437 496.038208,284.383820 494.334625,282.707245 
	C492.460938,280.863220 490.605591,278.902893 487.564148,277.498871 
M687.666443,798.805542 
	C693.873596,795.613159 699.103027,791.180237 703.663635,785.889648 
	C698.118591,790.267273 692.573547,794.644958 686.339661,799.199524 
	C682.366821,801.391357 678.393982,803.583191 674.421143,805.775024 
	C679.000183,804.125793 683.620239,802.568909 687.666443,798.805542 
M730.422241,741.375732 
	C732.822266,731.221497 731.397705,720.971863 731.494324,710.760010 
	C731.254700,721.178955 731.739624,731.621887 729.613403,742.611694 
	C727.863281,749.869141 724.842285,756.667664 721.907654,763.498718 
	C726.071716,756.887695 729.156982,749.877930 730.422241,741.375732 
M489.247345,775.606934 
	C492.454559,780.229553 496.745392,783.776123 501.227051,787.137329 
	C497.142670,783.096375 493.058289,779.055420 488.772064,774.353943 
	C488.173065,773.359436 487.640961,772.316833 486.964996,771.377686 
	C476.423798,756.731689 470.945374,740.529480 471.697937,722.354614 
	C471.868439,718.237244 471.723022,714.106750 471.723022,709.982361 
	C471.095795,718.617126 470.456482,727.285278 471.237030,735.823486 
	C472.605499,750.792969 478.677277,763.927185 489.247345,775.606934 
M491.545380,784.522034 
	C491.067719,784.118164 490.590057,783.714294 490.419159,783.569763 
	C490.419159,790.101562 490.104980,796.684448 490.472107,803.229065 
	C492.335938,836.455566 494.494049,869.665710 496.306000,902.894836 
	C497.231689,919.871399 498.842163,922.197510 515.285217,926.675171 
	C515.606079,926.762573 515.939392,926.803772 516.261108,926.888611 
	C538.769714,932.824097 561.827515,934.778931 584.944397,935.549744 
	C610.914429,936.415833 636.873657,935.545593 662.637451,931.664062 
	C675.149170,929.779053 687.627869,927.708862 699.270996,922.362000 
	C702.808716,920.737366 705.401611,918.529541 705.622925,914.229492 
	C706.246948,902.104553 706.992676,889.985901 707.697754,877.865173 
	C708.518860,863.747375 709.331787,849.629028 710.177307,835.512695 
	C711.197693,818.477539 712.248535,801.444214 713.349060,783.378540 
	C694.198425,802.831787 671.656250,814.772095 646.286621,822.589417 
	C647.734985,825.039917 648.706299,826.753601 649.743958,828.426147 
	C653.343201,834.228027 657.106934,839.933228 660.542114,845.830139 
	C664.553345,852.716064 661.837097,857.512756 653.867310,857.991089 
	C652.539185,858.070801 651.203064,858.025024 649.870667,858.025208 
	C627.717102,858.028015 605.563477,858.019592 583.409912,858.034119 
	C572.416443,858.041382 561.422913,858.085876 550.429443,858.121887 
	C546.321899,858.135315 542.789856,857.204895 541.315002,852.751282 
	C540.293152,849.665649 541.843323,847.276001 543.390991,844.867859 
	C548.040710,837.632568 552.677917,830.389221 557.708618,822.542847 
	C532.452332,814.833374 509.889038,803.874756 491.545380,784.522034 
M600.113892,321.880280 
	C600.174744,322.204498 600.208740,322.537659 600.311462,322.847992 
	C600.346375,322.953339 600.647461,323.087280 600.670715,323.062408 
	C601.096558,322.605988 601.634094,322.189850 601.885498,321.644257 
	C605.856506,313.025757 609.770569,304.380981 613.750305,295.766571 
	C614.478333,294.190674 615.095215,291.700043 617.497009,292.984619 
	C619.377258,293.990265 618.204468,295.935730 617.492371,297.421417 
	C613.893738,304.929199 609.984009,312.304321 606.748596,319.964691 
	C603.980957,326.517578 599.059509,331.947113 597.721680,339.276398 
	C595.362122,352.202850 592.436584,365.025787 589.770630,377.896759 
	C589.342407,379.963898 588.535400,382.035919 589.386292,384.130432 
	C599.199890,387.898834 608.896423,384.716064 618.585327,384.192596 
	C619.011292,384.169617 619.572205,383.805420 619.803040,383.433990 
	C623.225159,377.929260 626.872131,372.607819 631.303955,367.833374 
	C631.965637,367.120544 631.900696,365.618317 631.952209,364.471375 
	C632.716858,347.458771 629.352600,330.686249 628.989380,313.728943 
	C628.732971,301.758118 621.349243,291.423676 620.657715,279.486572 
	C620.606750,278.605194 619.818176,277.690338 619.201782,276.929260 
	C609.457336,264.897369 595.902283,257.788635 583.363892,249.390549 
	C580.853088,247.708817 578.875854,249.049911 578.240601,251.941910 
	C577.813110,253.888107 577.579773,255.878296 577.290771,257.853363 
	C576.111389,265.913269 574.979797,273.980469 573.734619,282.030090 
	C573.543701,283.264435 573.489075,284.840271 571.912415,285.330353 
	C570.289429,285.834839 569.556335,284.461334 568.658020,283.534454 
	C567.035217,281.859924 565.484192,280.113647 563.822266,278.479706 
	C556.848206,271.623383 556.831909,271.622467 547.985413,275.495941 
	C545.087891,276.764618 541.883484,277.662598 539.423584,279.527161 
	C535.189087,282.736786 533.240112,281.358185 530.631470,277.313019 
	C521.051147,262.456940 516.722900,261.427460 502.357483,269.534821 
	C497.995117,271.996796 496.949982,271.660126 496.362610,266.547668 
	C495.547119,259.449463 495.218597,252.295166 494.688568,245.164368 
	C494.360413,240.749817 494.045227,236.334305 493.729126,231.986221 
	C489.527283,231.500671 486.501526,232.034592 483.783997,234.551575 
	C481.117126,237.021591 477.869354,237.910095 474.078644,237.304535 
	C468.803314,236.461792 466.709625,238.782364 467.369904,244.137955 
	C468.088654,249.967926 470.495392,255.368820 471.697205,261.047363 
	C472.729279,265.923920 476.150909,268.489197 480.088470,269.258667 
	C487.109161,270.630676 491.978363,274.944824 497.004883,279.282196 
	C500.798584,282.555695 501.124908,286.228210 498.157288,290.294556 
	C495.174774,294.381317 494.127258,299.768646 495.088013,303.933502 
	C497.718109,315.335510 495.392853,326.089813 493.110535,336.978119 
	C492.556152,339.622955 491.903107,342.193085 492.597076,344.849762 
	C497.853302,364.972321 502.993195,385.127228 508.495605,405.182556 
	C510.639709,412.997284 514.435242,415.297791 522.497253,413.758392 
	C527.701965,412.764587 532.808044,411.607697 538.163574,412.299011 
	C538.295715,411.464752 538.523926,410.952606 538.416138,410.525238 
	C538.131836,409.398987 537.762146,408.284698 537.320618,407.209106 
	C526.074158,379.812256 519.443359,351.145081 513.987305,322.163361 
	C513.629944,320.264984 512.595520,317.858307 515.328308,316.403900 
	C518.312866,317.993561 517.642639,321.080353 518.081726,323.477325 
	C523.311584,352.025238 530.441833,380.030914 541.567627,406.906219 
	C542.779236,409.832947 543.679871,412.424530 540.777100,414.675110 
	C543.518738,418.936371 546.853271,421.298157 551.713928,421.044312 
	C554.600830,420.893524 557.254944,421.659698 559.906067,422.856049 
	C565.289673,425.285339 571.927917,424.457611 575.144958,420.772888 
	C579.078430,416.267456 582.624329,411.585999 581.745300,404.855621 
	C581.140442,400.224243 582.129761,395.558167 583.057800,390.977661 
	C588.828125,362.497467 597.706238,334.491425 596.139526,304.890198 
	C596.062683,303.438293 596.204895,301.793427 598.973694,301.438934 
	C601.568787,307.860992 599.567383,314.650421 600.113892,321.880280 
M638.875977,738.427368 
	C587.864380,740.879761 537.099365,739.269592 486.428253,728.711243 
	C485.880524,739.824463 487.316559,750.372131 487.782990,760.954590 
	C487.970642,765.211731 489.592346,768.470825 492.256775,771.692139 
	C509.566589,792.619568 532.229614,804.877014 557.696045,812.825684 
	C561.518311,814.018738 563.407410,812.915894 565.379944,809.768066 
	C574.754883,794.807373 584.306824,779.957336 593.828247,765.088684 
	C599.549438,756.154419 604.288391,756.172974 610.064087,765.293823 
	C619.422363,780.072144 628.768188,794.861023 637.856262,809.805420 
	C639.994141,813.320862 642.079102,814.114441 645.969116,812.944275 
	C664.388916,807.404053 681.431458,799.060730 696.130737,786.730408 
	C705.630737,778.761414 716.163696,771.036255 715.499512,756.037476 
	C715.107239,747.176453 716.228516,738.248413 716.698242,728.762939 
	C690.862305,734.641846 665.460449,737.533020 638.875977,738.427368 
M667.078125,732.558838 
	C669.226379,732.289490 671.369202,731.961670 673.523804,731.760071 
	C689.639832,730.252625 705.538208,727.605591 721.040222,722.828674 
	C723.501404,722.070251 725.921936,721.379822 725.908508,718.085815 
	C725.885498,712.459656 725.902161,706.833313 725.902161,700.883606 
	C684.948242,712.332825 643.238220,713.422974 601.414856,713.384827 
	C559.599304,713.346741 517.938904,711.775024 476.734863,700.635803 
	C476.111664,705.766846 476.656769,710.544556 476.532928,715.304688 
	C476.411560,719.969360 478.382019,721.927185 482.829193,723.113892 
	C511.981354,730.892761 541.819885,733.444458 571.771729,734.578918 
	C603.247803,735.771240 634.738586,735.264709 667.078125,732.558838 
M482.500488,368.871246 
	C481.088074,360.513214 477.205322,352.825714 476.322021,344.827271 
	C474.600555,343.302124 473.518372,345.746063 472.223389,344.620667 
	C469.632751,342.369263 467.540802,343.238190 465.302521,345.420959 
	C462.971558,347.694061 460.518738,346.840607 458.102783,345.092590 
	C452.374420,340.948029 449.916351,341.102661 444.485291,345.724457 
	C442.582550,347.343689 440.814819,349.130035 438.847443,350.662964 
	C435.606934,353.187744 434.351349,356.571869 435.136505,360.386993 
	C436.011780,364.640045 435.865692,369.015442 436.649536,373.171570 
	C441.079681,396.660614 448.507874,418.954681 464.455322,437.512909 
	C465.520691,438.752686 466.949921,439.975006 464.555511,442.537415 
	C452.814911,431.981079 446.935791,417.668976 440.076996,403.246826 
	C436.936584,409.534485 435.093872,414.852936 433.946136,420.414398 
	C432.141754,429.157654 438.730133,442.155060 446.611511,444.157196 
	C460.818573,447.766327 475.269104,450.157043 489.952087,450.744659 
	C495.291656,450.958374 497.211426,448.877930 496.641327,443.507996 
	C496.321716,440.497772 495.950745,437.556000 496.803375,434.601776 
	C498.048035,430.288971 497.581818,425.985382 496.482635,421.769897 
	C491.949707,404.385864 487.320160,387.027100 482.500488,368.871246 
M594.562134,410.667511 
	C598.125061,409.152618 601.871399,408.353424 605.705750,408.077454 
	C607.340881,407.959778 609.456909,408.059540 609.406616,410.339172 
	C609.362915,412.323792 607.386230,412.101044 605.917236,412.253571 
	C585.650879,414.357239 574.777161,429.474579 562.030640,443.067566 
	C574.005920,449.735413 580.411743,459.199127 581.007935,472.958771 
	C583.375793,469.837677 584.241150,466.778870 586.880676,465.634460 
	C588.837769,466.066864 586.734680,468.187012 588.869934,468.397095 
	C600.600037,462.015350 611.434937,454.011597 621.440308,444.914642 
	C627.761292,439.167603 630.667175,431.567505 631.669922,423.230896 
	C632.703064,414.641479 633.677002,406.041779 634.456726,397.426697 
	C634.745728,394.234039 635.553833,390.888000 633.745789,387.403229 
	C620.392578,390.161865 607.053162,391.564362 593.562866,389.426422 
	C591.576233,389.111572 590.276550,389.956329 590.381409,392.158234 
	C590.658691,397.978241 590.942261,403.798706 591.317688,409.612854 
	C591.421143,411.213745 592.555725,411.380310 594.562134,410.667511 
M584.124573,229.651001 
	C585.793335,227.415283 588.048828,225.574615 588.982544,222.415253 
	C587.060791,221.309128 585.158813,220.214401 583.150879,219.058685 
	C580.255127,228.346024 573.273743,229.799286 566.955627,223.011932 
	C566.083862,222.075409 565.445007,221.093246 566.217712,219.930237 
	C567.028503,218.710052 568.192627,218.955078 569.287292,219.648987 
	C570.551880,220.450623 571.774597,221.325729 573.079102,222.055359 
	C574.682861,222.952438 576.615417,223.240250 577.389282,221.316116 
	C579.398621,216.319717 579.888184,211.015274 580.714355,205.511688 
	C576.903748,205.634979 575.256348,207.688843 573.420532,209.248657 
	C567.827698,214.000732 561.898132,214.253983 555.264282,211.540619 
	C545.845215,207.688019 540.588684,200.581696 537.662537,191.163483 
	C536.239380,186.582977 533.941833,182.338486 531.327332,178.430267 
	C528.780640,179.464844 528.985291,183.348557 525.911621,182.061829 
	C524.165100,181.330688 524.334412,179.342819 525.044128,178.128464 
	C528.679810,171.907700 525.450745,168.702744 520.148071,166.272766 
	C515.079407,173.758575 516.848877,185.284653 523.857666,189.883438 
	C525.178711,190.750259 525.890686,191.655884 525.172729,193.125305 
	C521.171814,201.313690 519.743164,210.632507 514.298157,218.166473 
	C512.015930,221.324234 512.104797,224.440689 513.008179,228.067383 
	C517.302673,245.308502 528.401855,259.343872 535.090454,275.444183 
	C535.171387,275.638916 535.665039,275.662170 536.435852,275.926666 
	C542.615662,268.433777 549.976135,261.701233 555.065247,252.964111 
	C554.354065,252.480469 553.993042,252.107086 553.555237,251.955627 
	C534.315552,245.299667 527.880920,229.208160 523.704285,211.458374 
	C523.553772,210.818481 523.551880,210.134109 523.552002,209.470459 
	C523.552185,208.403290 523.873596,207.437805 525.028748,207.167068 
	C526.463440,206.830856 527.222046,207.722000 527.560181,208.952377 
	C527.867065,210.069229 528.018738,211.229935 528.218506,212.374832 
	C530.222595,223.858566 534.849854,234.193222 543.605835,241.933670 
	C553.152283,250.372910 562.870300,251.674332 572.311462,242.108459 
	C576.167236,238.201813 579.903015,234.176727 584.124573,229.651001 
M404.454315,337.829651 
	C401.201111,330.466095 401.419769,322.682648 402.003632,315.355286 
	C394.417114,315.355286 387.160461,315.210358 379.912537,315.400208 
	C373.909424,315.557495 368.015106,316.515381 362.462952,319.059479 
	C360.929871,319.761993 358.760040,321.518158 357.694336,319.168091 
	C356.491699,316.515869 359.470734,316.116699 361.086090,315.317688 
	C366.316315,312.730591 372.118439,312.129272 378.234650,310.998657 
	C374.668762,308.266937 370.969604,307.325195 367.293091,306.392883 
	C365.046844,305.823303 363.139648,306.459961 361.418549,308.177734 
	C349.391571,320.181458 341.909973,334.648193 338.669312,351.199219 
	C336.933319,360.065643 343.777100,367.516571 352.713867,367.735779 
	C359.229156,367.895508 365.679474,367.240631 372.128479,366.642822 
	C386.955688,365.268402 400.294617,359.702576 413.177338,352.030060 
	C409.903473,347.406189 406.589081,343.423340 404.454315,337.829651 
M462.032135,324.384918 
	C460.575470,328.008362 458.782196,326.393738 457.514130,324.437225 
	C453.965637,318.962311 451.027985,313.244781 450.684387,306.472717 
	C450.481384,302.472382 449.750641,298.498871 449.160797,293.734100 
	C447.921173,295.361145 447.128632,296.220886 446.540955,297.203156 
	C443.581390,302.150238 439.641174,305.304321 433.675018,306.431732 
	C426.014587,307.879303 418.554962,310.360626 410.942444,312.107269 
	C408.440216,312.681366 407.066956,313.895264 406.596771,316.212433 
	C403.960083,329.206421 407.873474,340.152832 417.146759,349.354828 
	C418.472290,350.670197 420.109222,351.844299 422.052765,350.720703 
	C429.680023,346.311035 437.870209,342.619476 444.381866,336.675415 
	C447.128937,334.167877 449.561127,332.948608 452.977234,332.926147 
	C464.562622,332.849945 474.889130,327.793457 485.649384,324.514709 
	C488.505066,323.644501 491.025757,321.674683 489.013123,317.645508 
	C485.283966,318.377014 481.732239,319.159332 478.148132,319.742767 
	C476.189270,320.061646 473.271240,321.477173 472.863953,318.268951 
	C472.516418,315.531128 475.465088,316.035950 477.335663,315.650330 
	C480.909271,314.913727 484.508118,314.211243 487.988464,313.142731 
	C490.167847,312.473694 491.794952,310.805511 491.162872,308.220734 
	C490.517700,305.582520 488.505737,305.254791 486.066132,305.531067 
	C482.437531,305.941956 478.780304,306.126709 475.130341,306.309021 
	C473.653198,306.382782 471.827637,306.464661 471.671448,304.408386 
	C471.514099,302.336548 473.325897,302.133820 474.808685,302.046722 
	C478.297089,301.841797 481.797150,301.838318 485.286407,301.644104 
	C488.093689,301.487793 490.897369,300.955505 490.630402,297.249207 
	C490.377869,293.743286 487.766083,293.163727 484.835876,293.326141 
	C480.354675,293.574524 475.876099,293.899323 471.391632,294.042816 
	C469.797943,294.093811 468.220856,293.373932 468.374390,291.490326 
	C468.510956,289.815063 470.137299,289.793671 471.487366,289.707306 
	C475.802002,289.431183 480.116821,289.156952 484.429749,288.855774 
	C485.751312,288.763458 487.250793,288.783630 487.648651,287.115936 
	C488.072144,285.340912 487.452881,283.834259 485.997192,282.716156 
	C484.463318,281.538025 482.673859,281.307159 480.802673,281.316620 
	C472.928497,281.356506 465.253021,282.688324 457.703613,284.837830 
	C455.183502,285.555359 453.275208,287.029388 452.646149,288.440186 
	C455.683716,300.836334 453.927155,313.630890 462.032135,324.384918 
M466.621613,717.842773 
	C466.177704,713.531128 465.967194,709.268677 466.803680,704.924866 
	C467.497223,701.323242 467.154358,697.631165 465.875732,694.085876 
	C464.829407,691.184631 463.099060,689.327881 459.924286,689.294556 
	C458.701324,690.893127 458.532318,692.556458 458.194794,694.185303 
	C449.452759,736.374451 440.604797,778.535583 426.576385,819.392761 
	C424.423889,825.661743 426.543579,829.231812 433.045013,830.615417 
	C439.084412,831.900696 445.026245,833.485291 450.717407,835.899597 
	C453.971802,837.280212 455.317749,836.435608 455.257019,832.768372 
	C455.173462,827.719116 455.191254,822.402527 452.655029,818.155884 
	C448.315613,810.890198 449.378448,804.140259 451.917725,796.731812 
	C454.650696,788.758179 457.970459,782.745911 467.412109,780.575867 
	C475.368683,778.747070 481.458099,771.242310 475.243073,762.307739 
	C474.122589,760.696960 473.305450,758.780334 472.749695,756.887085 
	C469.098785,744.449951 466.645660,731.807495 466.621613,717.842773 
M547.144653,493.623444 
	C548.324890,491.280914 550.626526,490.728485 552.843140,489.973236 
	C558.826538,487.934662 564.771912,485.783661 570.767090,483.781158 
	C572.985901,483.040039 574.701355,481.887054 575.191162,479.516907 
	C578.180969,465.049194 572.873291,452.297089 558.710632,446.523193 
	C557.351807,445.969208 555.864319,445.392731 554.443176,446.510101 
	C548.843567,450.912628 543.245239,455.316803 537.491028,459.842560 
	C538.392944,461.443756 539.226074,462.678223 539.820496,464.018616 
	C543.249451,471.751221 547.257996,479.319702 547.259277,488.102875 
	C547.259583,490.029877 547.654175,492.679993 544.851807,492.713593 
	C542.257629,492.744720 542.734802,490.187836 542.701172,488.458252 
	C542.554871,480.923889 539.614868,474.130035 536.457947,467.607513 
	C532.246582,458.906281 530.795105,458.558044 521.647644,461.431244 
	C516.895264,462.923950 512.236694,464.742828 507.616211,466.613037 
	C505.961090,467.282928 504.404480,468.379700 503.053070,469.566467 
	C501.612518,470.831512 500.768951,472.529327 502.052734,474.443451 
	C503.269989,476.258331 504.923615,475.722229 506.512909,475.067322 
	C510.667694,473.355072 514.794250,471.573517 518.963806,469.898560 
	C520.440308,469.305481 522.350159,468.088623 523.366089,470.163757 
	C524.592468,472.668701 522.095947,473.234894 520.557556,473.907715 
	C516.289978,475.774384 511.977692,477.554352 507.610168,479.171692 
	C504.789795,480.216095 503.470795,481.896240 504.400238,484.868835 
	C505.407349,488.089813 507.714294,487.498352 510.049316,486.635376 
	C514.260498,485.079010 518.467407,483.511017 522.679321,481.956665 
	C524.109131,481.428986 525.744873,480.767853 526.608215,482.581818 
	C527.499451,484.454376 525.860840,485.389343 524.530396,485.934570 
	C520.532837,487.572784 516.442688,488.983398 512.410095,490.538361 
	C510.461548,491.289703 507.728973,491.663879 508.641418,494.725922 
	C509.445435,497.424011 511.838074,498.065979 514.318542,497.468994 
	C518.356750,496.497131 522.324646,495.235199 526.330566,494.126160 
	C527.984375,493.668304 530.108154,492.030853 531.153564,494.389801 
	C532.342712,497.073303 529.695923,497.752808 527.890137,498.302551 
	C523.339539,499.687836 518.718079,500.840363 514.086975,502.096497 
	C515.801697,506.111237 517.623291,507.204498 521.880310,506.300018 
	C527.079407,505.195374 532.232666,503.847473 537.358459,502.433380 
	C541.738342,501.225098 545.168396,498.761139 547.144653,493.623444 
M340.291962,816.770081 
	C333.600403,821.551453 331.203064,828.148438 331.247131,836.233643 
	C331.408722,865.881653 331.434479,895.532043 331.201630,925.179138 
	C331.159882,930.497742 333.104340,932.703247 338.123169,933.400818 
	C354.724609,935.708313 371.292419,935.565002 387.901215,933.487610 
	C392.904785,932.861755 394.952881,930.786926 394.917664,925.433289 
	C394.721405,895.618774 394.728699,865.800842 394.978455,835.986633 
	C395.060211,826.225952 390.889771,819.556885 382.677979,814.786560 
	C379.244476,812.792053 374.597412,812.181458 373.374878,807.242065 
	C373.077240,806.039368 371.429962,806.163147 370.275024,806.151001 
	C365.445374,806.100403 360.615295,806.075989 355.785370,806.070618 
	C354.625366,806.069336 352.944519,805.908081 352.580963,806.978638 
	C350.648041,812.670471 344.656525,813.105652 340.291962,816.770081 
M701.005188,693.649048 
	C670.765320,699.028503 640.186340,700.353271 609.577820,700.918091 
	C589.275879,701.292725 568.966492,700.393982 548.711487,699.041199 
	C529.470398,697.756104 510.179901,696.195007 491.457855,691.292114 
	C485.461914,689.721924 481.821503,690.791138 479.018890,696.452148 
	C481.409637,697.259888 483.702759,698.187195 486.075470,698.812378 
	C506.113220,704.092529 526.649475,706.196411 547.216858,707.539001 
	C572.787415,709.208130 598.403137,709.776611 624.052246,709.001160 
	C649.190491,708.241089 674.252991,706.870056 699.073486,702.638733 
	C707.481995,701.205322 715.981384,699.881165 723.601624,696.226562 
	C720.868713,689.996216 716.500366,689.707336 711.125122,691.580811 
	C708.174316,692.609253 704.951233,692.856506 701.005188,693.649048 
M686.782166,665.042542 
	C690.170715,664.609924 689.138733,663.011292 687.630310,661.501831 
	C683.704590,657.573303 678.982056,656.805115 673.808960,658.360046 
	C669.977661,659.511719 668.467651,658.610901 668.475586,654.203369 
	C668.489014,646.731323 664.331482,642.544434 657.881104,643.507935 
	C653.644348,644.140869 653.109375,642.391235 652.901794,638.992126 
	C652.484192,632.151062 648.669617,628.376282 642.336304,628.074890 
	C635.901794,627.768738 631.493835,631.086548 630.597107,637.701904 
	C630.244751,640.301208 628.827881,641.635986 627.023132,641.677124 
	C623.549072,641.756104 620.103882,642.440430 616.791992,642.481323 
	C614.355896,642.511475 613.582642,643.168640 612.764709,644.703674 
	C611.736572,646.633179 611.243530,648.754578 611.410767,650.972656 
	C611.560364,652.956909 610.895569,653.893860 608.694336,654.200867 
	C599.583801,655.471680 597.088623,659.178955 598.864868,668.903687 
	C606.802490,668.940491 614.818176,669.279846 623.162231,668.379639 
	C621.487305,661.795654 619.632751,655.648438 625.803528,651.383057 
	C629.302124,648.964783 633.265625,649.623779 636.491821,652.307739 
	C641.953125,656.851135 640.613281,662.182068 637.095276,668.026672 
	C653.935059,668.058105 669.979736,666.705139 686.782166,665.042542 
M408.168304,293.566376 
	C409.697632,290.148163 412.247833,289.438599 415.547150,290.826355 
	C418.063019,291.884552 420.700958,292.132202 423.382141,292.060608 
	C429.301514,291.902588 430.842438,290.045563 429.510803,284.195618 
	C428.849792,281.291656 427.658997,278.508575 426.712311,275.669312 
	C426.161560,274.017517 424.899231,272.325287 427.369385,270.410339 
	C432.182617,273.471405 431.161896,280.212097 435.888092,284.699219 
	C436.547607,277.906555 437.039795,272.146606 437.699219,266.405884 
	C437.942810,264.285187 436.617065,260.449829 439.511261,260.553192 
	C443.094238,260.681152 441.770691,264.599426 441.668091,267.039276 
	C441.470856,271.729309 440.835297,276.415314 441.529633,281.566315 
	C443.856323,279.983276 445.365753,278.661011 447.108612,277.826233 
	C452.190674,275.391998 455.884613,270.120667 455.393524,265.640717 
	C455.101013,262.972565 444.167908,250.195251 441.972473,249.958679 
	C441.807373,249.940872 441.639832,249.941727 441.473389,249.940063 
	C433.942200,249.865112 426.772003,250.481323 419.788269,254.312897 
	C413.084778,257.990723 407.622040,262.983368 401.897064,267.762360 
	C395.761749,272.883911 394.352905,279.192230 397.539307,286.572845 
	C398.338654,288.424377 399.053192,290.199402 399.034637,292.291473 
	C399.010468,295.025085 396.187653,298.819855 400.158844,300.213440 
	C403.868378,301.515198 405.141327,297.196075 407.229523,295.014252 
	C407.456390,294.777222 407.606506,294.466797 408.168304,293.566376 
M483.391968,671.842285 
	C481.184845,676.810486 485.625305,676.119629 487.832825,676.636292 
	C514.039673,682.769531 540.798279,684.571716 567.544678,685.526733 
	C596.481873,686.559875 625.460388,686.661621 654.408875,684.826721 
	C674.184021,683.573242 693.878784,681.818970 713.261597,677.538635 
	C715.717468,676.996277 718.634521,677.108093 720.299133,674.586731 
	C719.581421,671.899231 718.062500,671.024414 715.415161,671.627197 
	C685.537170,678.429504 655.066772,679.155823 624.653809,680.068604 
	C604.360474,680.677673 584.052551,680.369324 563.747681,679.399963 
	C537.822693,678.162231 511.867249,677.499207 486.560883,670.831848 
	C485.512787,670.555664 484.612427,670.512268 483.391968,671.842285 
M623.500122,690.291199 
	C602.199646,690.124207 580.903198,690.725830 559.599915,689.429810 
	C535.506226,687.964050 511.448822,686.463074 487.873718,680.872498 
	C484.673615,680.113647 483.132233,680.878418 482.659515,684.194824 
	C483.217133,684.599731 483.688171,685.137085 484.272766,685.329712 
	C486.006287,685.900757 487.772461,686.385742 489.547119,686.816833 
	C514.583740,692.897095 540.171631,694.635437 565.755066,695.535645 
	C595.861267,696.595032 626.012146,696.762573 656.106750,694.680542 
	C675.690674,693.325684 695.213806,691.385681 714.362427,686.778259 
	C716.549072,686.252136 719.022217,686.173706 720.358521,683.944153 
	C719.868225,680.433472 717.731567,680.625305 715.184082,681.221191 
	C685.353943,688.199341 654.946716,689.449890 623.500122,690.291199 
M560.908936,627.426208 
	C551.218262,589.758606 541.534668,552.089172 531.829529,514.425232 
	C530.280457,508.413635 529.657043,508.175964 523.994812,511.280731 
	C524.326477,512.808838 524.621155,514.431580 525.033203,516.023926 
	C529.443665,533.068054 533.861267,550.110474 538.299133,567.147461 
	C546.677246,599.311218 555.109436,631.460999 563.408997,663.645020 
	C564.500732,667.878723 566.429321,669.686401 571.367065,667.534363 
	C567.981567,654.490540 564.570679,641.349060 560.908936,627.426208 
M542.345032,181.775955 
	C540.784485,184.630295 539.583313,187.484909 542.619995,190.766586 
	C544.234741,186.682419 546.254761,183.095215 548.799622,179.837677 
	C549.723511,178.655075 550.901917,178.103760 552.221619,179.233185 
	C553.339905,180.190323 553.058289,181.298721 552.250244,182.322601 
	C551.528137,183.237534 550.715210,184.083191 550.023376,185.019302 
	C542.788818,194.807785 543.926086,200.397003 554.361450,206.434433 
	C554.649719,206.601257 554.946350,206.753784 555.239441,206.912262 
	C560.566040,209.792389 565.641907,210.072266 570.446655,205.712463 
	C571.911133,204.383560 573.590759,203.208618 575.345520,202.297684 
	C581.564575,199.069275 585.806030,201.499557 586.313110,208.449997 
	C586.458008,210.436142 586.457031,212.454086 586.838318,214.395523 
	C587.180237,216.136536 588.423645,217.266556 590.268616,217.605438 
	C592.342712,217.986404 593.256531,216.758087 594.034729,215.115982 
	C596.294006,210.349060 598.626282,205.616745 600.920654,200.889969 
	C598.643860,199.463898 596.496460,199.325974 594.325195,199.197128 
	C592.429688,199.084641 589.779297,199.950073 589.163818,197.414917 
	C588.389282,194.224487 592.077576,195.287933 593.689270,193.956650 
	C587.229919,191.359406 580.992859,189.258438 574.043213,187.591400 
	C574.840088,189.493896 577.374084,190.847122 575.318542,192.573853 
	C573.561829,194.049576 572.293579,192.158279 571.018616,191.253479 
	C568.133179,189.205933 565.007812,187.555115 561.622314,186.693848 
	C558.438049,185.883804 556.648865,183.808304 554.951172,181.411575 
	C556.456543,178.408234 558.801392,179.642334 560.749878,179.976379 
	C572.442505,181.981079 583.699280,185.539749 594.782349,189.704697 
	C595.804871,190.088959 596.845337,191.321442 598.204407,190.003372 
	C583.845947,184.404846 569.051941,180.464050 554.461914,175.893112 
	C548.934753,174.161499 545.106384,175.811172 542.345032,181.775955 
M504.524078,407.835876 
	C497.793945,381.960693 491.063843,356.085510 484.359436,330.309113 
	C481.630920,329.961761 479.666443,330.568481 477.631256,332.224945 
	C488.664734,374.653229 499.715790,417.149078 510.721741,459.471527 
	C516.073669,459.367065 517.364990,457.459991 516.180908,453.062653 
	C512.204285,438.294952 508.500458,423.453766 504.524078,407.835876 
M608.599121,186.715790 
	C609.522400,183.719803 611.472534,180.406372 610.135132,177.636261 
	C608.782288,174.834412 604.901306,176.989807 602.323608,175.964752 
	C602.015930,175.842377 601.687439,175.765518 601.362732,175.693893 
	C591.912476,173.609116 584.519287,167.983948 577.444336,161.807770 
	C574.685730,159.399628 572.020142,156.856537 568.701355,155.201096 
	C565.780945,153.744354 563.397156,153.736038 561.789124,157.286072 
	C559.808472,161.658630 556.549744,164.933929 552.209167,167.111862 
	C551.259094,167.588577 549.959534,167.958145 550.134521,169.571335 
	C550.525330,169.832993 550.897400,170.209824 551.346008,170.364136 
	C569.279358,176.533524 587.724121,181.198227 605.213257,188.670700 
	C606.817139,189.355988 607.742432,188.868515 608.599121,186.715790 
M444.134430,174.391708 
	C443.783508,173.281250 443.489868,172.148544 443.069031,171.065231 
	C442.329407,169.161407 441.033691,167.796677 438.877350,168.609253 
	C436.898529,169.354919 436.327850,171.088318 436.866333,173.138885 
	C437.120117,174.105316 437.370911,175.072540 437.621460,176.039810 
	C442.084534,193.269791 446.545593,210.500320 451.010712,227.729782 
	C455.056366,243.340881 459.135284,258.943451 463.127136,274.568268 
	C463.825104,277.300171 464.651306,279.333038 468.135345,278.300537 
	C471.635956,277.263153 470.520477,274.943359 469.931519,272.693878 
	C469.678711,271.728271 469.480621,270.748291 469.227234,269.782867 
	C460.947571,238.238113 452.664246,206.694336 444.134430,174.391708 
M516.771912,626.526367 
	C514.155151,610.689209 511.538391,594.852112 508.921631,579.014954 
	C505.755310,601.421875 503.197540,623.792236 500.543793,646.151184 
	C500.155731,649.421021 501.773254,649.878418 504.347107,649.512573 
	C508.294861,648.951538 512.227478,648.225891 516.193420,647.870483 
	C519.069763,647.612610 519.977844,646.205933 519.558350,643.596191 
	C518.689392,638.190857 517.787354,632.790833 516.771912,626.526367 
M546.612671,658.659485 
	C550.164001,658.659485 553.715271,658.659485 557.287964,658.659485 
	C556.108887,649.193481 555.751770,648.791809 547.071045,649.433044 
	C529.666321,650.718811 512.285706,652.269165 495.065826,655.218933 
	C491.087738,655.900391 486.927917,656.051392 483.318695,658.399963 
	C484.245972,659.976807 485.649994,660.236816 486.884003,660.483582 
	C500.202454,663.146790 513.419678,666.752258 527.183716,662.630981 
	C533.206665,660.827454 539.512512,659.968811 546.612671,658.659485 
M618.925293,809.692688 
	C620.138794,815.333069 621.999512,816.123291 628.518372,813.407471 
	C619.751343,799.481995 611.027161,785.624451 601.836060,771.025330 
	C592.403748,785.823120 583.547363,799.717346 574.226013,814.341125 
	C576.161926,814.168152 576.968445,814.114624 577.769958,814.019653 
	C578.742371,813.904480 579.710754,813.754578 580.625916,813.627319 
	C581.298889,808.780884 581.298889,808.780884 588.842896,813.350586 
	C590.174072,811.481079 587.946899,809.498840 589.026855,807.643188 
	C590.460754,805.179443 592.330139,806.413879 594.393616,807.701050 
	C593.343201,804.314453 591.635498,801.507019 593.237671,798.834839 
	C594.676331,796.435242 598.016602,796.298218 599.981750,793.760742 
	C601.843262,791.357056 603.033386,795.419739 604.637390,796.199890 
	C609.128357,793.850708 610.103027,794.521301 611.665466,800.865112 
	C615.075745,798.270386 616.050293,798.411194 617.247070,802.069885 
	C617.965759,804.266968 618.235291,806.610962 618.925293,809.692688 
M648.230591,848.313843 
	C648.958496,848.200073 649.744507,847.659485 649.416687,847.074097 
	C645.416321,839.930969 641.400940,832.787964 635.789429,825.065918 
	C635.415161,831.000183 632.050476,830.572144 629.075256,830.334106 
	C625.650940,830.060059 623.393677,830.805603 622.576172,834.615967 
	C621.853516,837.984131 619.072449,839.643982 616.087402,841.036865 
	C610.034973,843.861023 604.764832,841.296936 599.069641,838.331909 
	C599.309326,843.447937 596.397461,842.165955 593.801941,841.115051 
	C593.746033,842.973206 594.915588,844.489319 593.803406,845.421814 
	C591.722290,846.973206 591.092529,844.323303 589.469788,844.632446 
	C589.983215,848.309387 592.787231,847.917603 595.150574,847.940002 
	C612.627991,848.106140 630.105957,848.204834 648.230591,848.313843 
M586.504822,675.748901 
	C607.658264,676.157715 628.799377,675.792480 649.937439,674.902710 
	C669.753967,674.068542 689.446228,672.122986 708.996460,668.769531 
	C715.556091,667.644348 718.523804,666.492310 720.257202,664.715088 
	C681.228271,672.823486 641.128418,673.586060 601.018005,673.243408 
	C560.989258,672.901489 520.855408,673.156921 481.439697,664.035400 
	C485.623749,667.265930 490.657227,667.900085 495.491302,668.660095 
	C525.305786,673.347839 555.334106,675.507141 586.504822,675.748901 
M449.449036,840.053833 
	C444.455719,837.727539 439.257172,836.057434 433.862762,834.914795 
	C431.051178,834.319397 429.736694,835.487366 429.369934,838.074097 
	C428.859924,841.671143 429.923065,843.702515 434.115601,843.744995 
	C436.892578,843.773010 440.432495,842.264282 442.582397,846.162048 
	C440.433838,848.153320 438.000214,847.076294 435.830017,847.289185 
	C434.022644,847.466492 431.937317,847.153442 431.324554,849.484558 
	C429.343689,857.020630 433.104767,863.145569 439.501617,863.809326 
	C449.599304,864.856873 450.169861,864.662781 454.826660,855.326721 
	C459.774353,845.407410 459.774292,845.407410 449.449036,840.053833 
M514.808960,259.544067 
	C517.468201,258.773254 519.749939,261.059998 523.026062,260.778564 
	C517.725464,250.430740 512.230164,240.763855 509.059052,230.239594 
	C506.602142,230.349426 504.637238,230.371613 502.685272,230.541962 
	C500.495697,230.733047 498.695312,231.728363 498.508850,234.090805 
	C497.684479,244.537781 499.270782,254.789886 500.670471,265.619293 
	C505.539062,263.262726 509.533386,260.810791 514.808960,259.544067 
M560.328430,836.783936 
	C558.373047,840.329468 555.360352,843.307678 554.246643,847.601318 
	C564.612549,847.601318 574.633057,847.601318 584.810669,847.601318 
	C584.952332,843.366943 585.719849,840.037231 589.941833,838.550110 
	C591.365356,838.048645 592.881165,836.589966 592.597046,834.737671 
	C592.310120,832.867493 590.423706,832.613159 588.922241,831.872437 
	C584.336609,829.610046 579.529724,830.293274 574.752930,830.338440 
	C571.680603,830.367493 568.432617,830.937317 566.911072,826.582153 
	C564.485962,830.346558 562.606812,833.263489 560.328430,836.783936 
M603.500244,825.726013 
	C612.711975,825.726013 621.923706,825.726013 631.367249,825.726013 
	C631.284973,822.498352 631.924683,819.161865 627.632019,819.183289 
	C610.527893,819.268372 593.446594,817.856873 576.335876,818.472229 
	C573.573730,818.571594 572.042175,819.427246 572.185486,822.588562 
	C572.329956,825.774902 574.264282,825.852966 576.589050,825.835510 
	C585.225952,825.770752 593.863098,825.754089 603.500244,825.726013 
M560.087524,270.271637 
	C563.524841,272.686035 565.954895,276.397614 570.149048,278.457794 
	C572.067566,272.009033 572.370605,265.752533 573.119568,259.544800 
	C574.382629,249.076218 574.344360,249.010742 564.566101,252.014526 
	C555.823730,254.700119 554.304871,263.401276 549.111206,269.151550 
	C552.917358,268.939667 556.298889,267.146210 560.087524,270.271637 
M525.184937,543.522766 
	C524.568726,541.960938 524.712830,539.940002 522.414612,538.918091 
	C520.023682,544.501770 518.230591,549.974731 514.646362,554.913391 
	C510.956299,559.997925 508.926056,566.552429 511.457336,573.299561 
	C511.925415,574.547180 512.309143,575.913757 513.847534,576.184143 
	C515.019043,576.389954 515.880371,575.547668 516.035828,574.574951 
	C516.921387,569.034607 520.576965,565.619141 524.747070,562.413391 
	C526.346313,561.183960 526.674683,558.965149 526.844971,556.963867 
	C527.212280,552.648132 527.337402,548.340881 525.184937,543.522766 
M597.634827,654.074463 
	C599.892883,651.273926 603.424805,650.499390 607.247437,648.728821 
	C590.744751,647.243652 575.430664,648.042603 571.522827,650.541626 
	C572.131287,653.688354 572.693604,656.901550 574.159119,659.965698 
	C580.000793,660.483521 585.233398,656.890625 590.895508,657.814697 
	C594.042419,658.328247 595.955261,657.410950 597.634827,654.074463 
M690.275330,658.159851 
	C693.543579,665.095398 699.201477,664.676758 705.322021,663.161194 
	C708.386597,662.402344 711.578735,662.137695 714.616333,661.298889 
	C716.171021,660.869507 718.440430,661.154968 719.098572,658.170105 
	C704.111145,653.860962 688.854492,652.200256 673.291138,651.962280 
	C678.936462,653.561157 685.177979,653.221191 690.275330,658.159851 
M447.605286,451.891632 
	C445.505127,454.142670 444.918427,457.063904 443.565216,460.095123 
	C447.710815,462.213287 451.966766,464.516174 455.919556,463.061646 
	C459.357025,461.796753 457.141388,457.047974 458.151031,454.004303 
	C458.202148,453.850311 458.198364,453.677917 458.218628,453.513885 
	C458.448303,451.654266 457.467834,450.682098 455.764404,450.457245 
	C453.174377,450.115326 450.498688,449.355438 447.605286,451.891632 
M726.210388,737.779297 
	C726.666077,733.918396 727.593140,730.078735 727.181091,726.043518 
	C724.501404,726.090515 721.756409,726.240723 721.477417,728.739746 
	C720.430969,738.113281 719.847839,747.538635 719.091125,756.944519 
	C722.873962,751.150085 725.208801,745.132568 726.210388,737.779297 
M611.414673,203.530029 
	C610.950684,200.882965 608.954529,200.409454 606.538635,199.924622 
	C603.263489,205.782043 600.048096,211.457199 597.425781,218.306183 
	C605.519348,216.169128 607.944946,209.753952 611.414673,203.530029 
M477.200867,460.373413 
	C474.819946,458.243866 472.439026,456.114319 469.842621,453.791992 
	C466.838593,466.103058 468.695038,468.492615 478.776672,466.086517 
	C479.376190,464.162750 478.550537,462.548859 477.200867,460.373413 
M585.524780,668.706787 
	C588.081604,668.411194 590.813843,669.539795 593.429321,667.746704 
	C593.168579,665.627869 594.487549,662.643311 590.890137,662.364868 
	C585.711548,661.964111 580.982239,663.695679 576.115356,666.015503 
	C578.580322,669.863708 581.904968,668.164978 585.524780,668.706787 
M631.998108,654.731995 
	C629.054749,654.501526 626.631226,655.156128 626.150940,658.572571 
	C625.801575,661.057495 626.322815,663.278442 629.002502,664.251282 
	C631.342834,665.100830 633.399719,664.271301 634.712341,662.374634 
	C636.860596,659.270752 635.848877,656.763367 631.998108,654.731995 
M509.287720,537.788513 
	C511.367920,537.948853 511.429230,534.758240 513.653748,535.158020 
	C515.546448,535.906189 514.186707,538.587341 516.528809,539.891663 
	C516.751038,535.788513 517.334106,532.264832 516.573059,527.991821 
	C513.870361,530.966553 511.811096,527.705200 509.207397,527.687622 
	C507.973358,531.013184 507.981293,534.201050 509.287720,537.788513 
M500.995026,462.597595 
	C494.402466,467.234100 496.279602,474.997772 493.290375,481.166962 
	C499.200592,481.877533 499.791992,481.212433 498.246613,476.604431 
	C496.313599,470.840607 497.267944,468.133728 502.167664,464.634766 
	C503.565826,463.636353 505.644379,463.317627 506.208771,461.127228 
	C504.298767,460.314728 503.091644,461.839447 500.995026,462.597595 
M663.802551,810.797058 
	C657.190491,813.258728 650.578430,815.720398 643.966309,818.182129 
	C651.993408,816.089355 660.026733,814.027710 667.105225,809.486389 
	C666.205872,809.826660 665.306519,810.166992 663.802551,810.797058 
M586.831665,407.214813 
	C586.831665,403.226349 586.831665,399.237915 586.831665,395.249451 
	C585.036804,401.033997 584.897034,406.807831 586.844910,412.569275 
	C586.844910,411.075928 586.844910,409.582581 586.831665,407.214813 
M438.254608,399.972443 
	C438.749420,397.752472 438.103516,395.927734 436.484467,394.204895 
	C434.360931,398.757202 434.409424,398.957733 438.254608,399.972443 
z"/>
<path fill="#000000" opacity="1.000000" stroke="none" 
	d="
M660.275269,585.297241 
	C660.804810,592.820801 657.955750,598.043945 651.413147,600.911316 
	C643.732422,604.277527 635.176697,601.001038 632.141479,593.749756 
	C628.859375,585.908508 632.523682,576.749390 640.112976,573.824280 
	C648.113770,570.740662 656.711243,574.525696 659.665588,582.457275 
	C659.951843,583.226013 660.061218,584.060547 660.275269,585.297241 
M655.892334,588.179626 
	C656.092896,584.901672 655.453186,582.025146 652.863586,579.627258 
	C648.690735,575.763245 645.091431,579.251282 641.350708,580.322449 
	C638.562683,581.120667 639.640137,583.384644 639.865112,585.315796 
	C640.008484,586.546753 639.250305,587.621826 638.350220,588.329468 
	C634.976562,590.981812 636.769531,593.239563 638.904602,595.290039 
	C644.518799,600.681580 652.584473,597.632080 655.892334,588.179626 
z"/>
<path fill="#000000" opacity="1.000000" stroke="none" 
	d="
M657.577759,564.217590 
	C651.193237,564.240295 647.715637,561.290649 647.941284,556.471619 
	C648.153015,551.949707 652.171265,548.965759 657.102722,549.662170 
	C660.536804,550.147217 662.455627,552.406433 663.033875,555.528870 
	C663.797852,559.654053 661.877991,562.560547 657.577759,564.217590 
M658.113892,555.948792 
	C656.850769,554.278625 655.236328,553.386841 653.676086,555.247559 
	C652.592773,556.539490 653.130188,558.184448 654.730896,558.926575 
	C657.018860,559.987305 658.082764,558.805359 658.113892,555.948792 
z"/>
<path fill="#000000" opacity="1.000000" stroke="none" 
	d="
M635.542358,611.434265 
	C636.004517,615.188599 634.705933,617.619873 631.461548,618.799866 
	C628.898193,619.732178 626.525269,619.290894 624.699341,617.187439 
	C623.094421,615.338623 622.388794,613.184998 623.341675,610.758484 
	C624.349854,608.190918 626.244934,606.803406 629.017395,606.739929 
	C632.154785,606.668030 634.442810,607.920898 635.542358,611.434265 
z"/>
<path fill="#000000" opacity="1.000000" stroke="none" 
	d="
M550.665894,391.299133 
	C546.407104,390.398102 545.680237,386.492432 543.800964,383.755707 
	C541.177551,379.935364 539.161560,375.693359 536.955505,371.594208 
	C536.383301,370.531067 536.180359,369.258240 537.443420,368.496704 
	C538.821289,367.666016 539.661926,368.668976 540.195557,369.746674 
	C543.377319,376.172974 547.119263,382.253387 551.276184,388.090271 
	C552.011353,389.122528 552.141052,390.255737 550.665894,391.299133 
z"/>
<path fill="#000000" opacity="1.000000" stroke="none" 
	d="
M511.863159,760.502441 
	C512.346252,758.632812 512.602905,757.120056 513.238708,755.788269 
	C514.469177,753.210754 516.435547,751.447021 519.515320,751.790283 
	C522.362061,752.107605 524.533752,753.482239 525.406555,756.409851 
	C527.151794,762.263916 526.055420,767.975830 524.147034,773.503906 
	C523.186279,776.286865 520.535706,777.589600 517.656128,776.985291 
	C514.287964,776.278381 512.024048,773.985779 511.775879,770.420715 
	C511.557037,767.276794 511.780060,764.102173 511.863159,760.502441 
M520.036743,761.322388 
	C519.854675,760.469238 520.513733,759.338196 518.851685,758.664429 
	C518.197998,762.757080 516.730835,766.625671 518.031250,771.506958 
	C520.613708,768.215149 519.422058,764.970703 520.036743,761.322388 
z"/>
<path fill="#000000" opacity="1.000000" stroke="none" 
	d="
M505.377930,768.444458 
	C506.398163,770.731384 511.246887,769.245117 509.946869,773.115723 
	C508.648132,776.982422 505.337952,774.524597 503.058838,774.209961 
	C496.165924,773.258362 495.680084,771.745300 499.732941,766.101135 
	C502.067230,762.850403 505.481476,760.112000 505.478088,755.578613 
	C504.908997,755.378296 504.500305,755.093323 504.331360,755.197388 
	C503.018402,756.006409 502.205170,757.928711 500.128265,756.957886 
	C498.807739,756.340576 498.694031,755.194031 498.900909,754.010498 
	C499.272705,751.883423 500.400726,750.267334 502.613739,749.819092 
	C505.190216,749.297302 507.619019,749.655701 509.410156,751.838989 
	C511.502655,754.389526 511.993927,757.392395 510.585602,760.254150 
	C509.207458,763.054626 507.185852,765.538391 505.377930,768.444458 
z"/>
<path fill="#000000" opacity="1.000000" stroke="none" 
	d="
M540.290405,757.298096 
	C540.220276,760.578857 540.251953,763.405640 540.020020,766.210632 
	C539.701111,770.067688 537.966736,774.482849 544.466492,774.867554 
	C545.560852,774.932312 545.983826,776.070374 545.873047,777.169373 
	C545.742737,778.463257 545.094177,779.134399 543.697021,779.416626 
	C536.670471,780.835876 533.448181,778.260010 533.777161,771.149414 
	C533.991333,766.520752 534.436584,761.902222 534.810547,757.281738 
	C534.933228,755.765686 535.135132,754.182007 537.086548,753.960510 
	C539.154785,753.725769 540.142090,754.843567 540.290405,757.298096 
z"/>
<path fill="#000000" opacity="1.000000" stroke="none" 
	d="
M553.666870,229.443542 
	C552.231995,228.099060 550.315552,227.020035 551.864136,225.177399 
	C553.221191,223.562653 554.531799,225.007675 555.674500,225.961533 
	C559.276001,228.967911 563.623779,230.022797 568.112305,230.651505 
	C569.818481,230.890488 571.899170,231.001282 571.444397,233.285995 
	C571.036011,235.337311 568.992065,235.035645 567.282227,234.859619 
	C562.353699,234.352173 557.936279,232.578186 553.666870,229.443542 
z"/>
<path fill="#000000" opacity="1.000000" stroke="none" 
	d="
M563.949951,237.758362 
	C563.827637,238.264053 563.776917,238.456238 563.652954,238.539780 
	C560.911987,240.387192 558.660583,239.215042 556.650757,237.264481 
	C555.862549,236.499527 555.753296,235.118622 556.842896,234.758286 
	C559.794250,233.782211 562.246033,234.776260 563.949951,237.758362 
z"/>
<path fill="#000000" opacity="1.000000" stroke="none" 
	d="
M393.075989,865.000000 
	C393.023529,882.470581 392.895721,899.441772 392.991455,916.411621 
	C393.014191,920.443237 391.587738,922.555054 387.556000,923.305908 
	C371.154388,926.360474 354.784515,926.088745 338.406189,923.215332 
	C335.170654,922.647644 333.599884,921.023804 333.612610,917.454041 
	C333.705292,891.478577 333.675537,865.502502 333.586273,839.526917 
	C333.575989,836.543640 334.501984,834.290649 337.566498,834.392029 
	C349.356232,834.782532 359.773346,829.083740 371.028656,827.200134 
	C372.819458,826.900574 374.687531,826.819397 376.500732,826.935608 
	C389.498322,827.768799 393.152802,831.641724 393.159241,844.508972 
	C393.162537,851.172668 393.109863,857.836426 393.075989,865.000000 
M350.516907,901.178833 
	C337.055450,900.880249 336.638519,901.344666 338.227875,913.891846 
	C338.613495,916.936340 339.967346,918.628174 343.133789,919.161499 
	C354.332916,921.047791 365.559113,921.924622 376.844482,920.231689 
	C390.120605,918.240051 387.562042,920.099182 387.976349,907.345459 
	C388.172028,901.321045 387.695038,901.002197 381.406860,901.018494 
	C371.441772,901.044373 361.476807,901.134155 350.516907,901.178833 
M383.338715,896.081360 
	C387.128357,896.411377 388.902344,894.812927 388.663910,890.881897 
	C388.472870,887.732666 388.700897,884.560059 388.571167,881.404846 
	C388.187805,872.079407 387.971405,871.869324 378.908386,871.639709 
	C377.624603,871.607178 376.333160,871.984192 375.041290,872.138489 
	C372.953979,872.387817 371.745270,871.429504 371.418762,869.189697 
	C371.189941,870.763062 370.921844,872.409241 369.158722,872.086914 
	C363.462128,871.045410 357.438721,874.454285 351.834778,870.798584 
	C351.461487,870.555054 349.365692,872.017029 348.208832,870.383362 
	C345.157166,873.626953 341.625732,871.961304 338.011871,871.262268 
	C338.011871,877.341736 338.058655,883.322998 337.999603,889.303162 
	C337.931305,896.220764 337.887177,896.413391 345.034821,896.549316 
	C357.502625,896.786377 369.978851,897.011230 383.338715,896.081360 
M337.886230,856.154053 
	C337.991791,858.055603 338.097321,859.957153 338.214355,862.064941 
	C339.187958,861.337524 339.776794,860.678345 340.511627,860.384888 
	C344.670380,858.723877 348.838379,861.809998 353.169861,860.329712 
	C354.647034,859.824829 355.059601,862.138428 355.214203,863.693787 
	C355.391785,865.480774 354.465240,867.627380 356.508240,869.019287 
	C356.927551,868.652100 357.284058,868.486084 357.377808,868.225525 
	C357.541901,867.769348 357.612976,867.253967 357.604431,866.765503 
	C357.528717,862.431885 357.964417,860.025818 363.979645,860.364746 
	C370.660645,860.741150 377.564636,860.504089 384.357239,859.991028 
	C387.083984,859.785095 388.768311,859.022949 388.593018,855.855713 
	C388.425812,852.835022 386.512787,852.379028 384.162781,852.425781 
	C379.184052,852.524658 374.184296,853.043518 369.233276,852.738892 
	C360.091248,852.176514 350.955994,852.544739 341.819977,852.392090 
	C339.745544,852.357422 337.623108,852.357910 337.886230,856.154053 
M382.391266,832.904114 
	C374.490509,829.651917 367.371002,832.072876 359.877228,835.599365 
	C368.931519,840.771057 382.366943,841.276611 387.366516,836.897644 
	C386.862488,834.610596 384.772034,834.139465 382.391266,832.904114 
M340.994507,841.142273 
	C341.025238,841.776367 340.795837,842.716553 341.126617,842.997559 
	C344.765076,846.089050 356.507416,845.415405 360.874390,841.414673 
	C354.021301,840.300537 348.033325,835.559204 340.994507,841.142273 
z"/>
<path fill="#000000" opacity="1.000000" stroke="none" 
	d="
M563.922424,193.972900 
	C566.300110,195.065796 566.714539,196.653091 565.768066,198.530777 
	C565.123657,199.809311 563.942688,200.378250 562.490051,199.958160 
	C561.116150,199.560867 560.163391,198.595108 560.118774,197.179672 
	C560.049133,194.967590 561.451050,194.027023 563.922424,193.972900 
z"/>
<path fill="#000000" opacity="1.000000" stroke="none" 
	d="
M594.888306,207.861282 
	C592.638428,209.834518 590.612915,209.868210 589.407410,207.393494 
	C588.542297,205.617554 589.623352,203.987061 591.476990,203.669708 
	C594.284119,203.189072 595.323669,204.860306 594.888306,207.861282 
z"/>
<path fill="#000000" opacity="1.000000" stroke="none" 
	d="
M581.028809,846.813171 
	C577.249939,842.497742 580.907349,840.753723 583.636963,837.807739 
	C585.224915,842.022461 584.616028,844.777527 581.028809,846.813171 
z"/>
<path fill="#000000" opacity="1.000000" stroke="none" 
	d="
M574.636230,841.551453 
	C574.185913,837.465515 576.404663,835.895569 581.757996,836.385620 
	C580.735718,839.887085 577.827820,840.764771 574.636230,841.551453 
z"/>
<path fill="#000000" opacity="1.000000" stroke="none" 
	d="
M580.582764,832.370789 
	C580.739990,833.626587 580.187256,834.160889 579.429749,834.557190 
	C578.215576,835.192383 576.951904,835.556274 575.862427,834.457336 
	C575.488098,834.079712 575.185974,833.180664 575.380432,832.771606 
	C576.015686,831.435547 577.387390,831.228088 578.697327,831.287781 
	C579.283020,831.314514 579.848816,831.777161 580.582764,832.370789 
z"/>
<path fill="#000000" opacity="1.000000" stroke="none" 
	d="
M358.377441,876.539185 
	C360.191956,878.676147 360.191956,878.676147 360.476196,882.849915 
	C361.377991,880.584900 360.096558,877.875122 362.054291,876.388123 
	C363.850098,875.024231 366.242554,875.632324 368.374512,875.642212 
	C373.003632,875.663696 377.631989,875.917847 382.260834,875.923889 
	C386.024017,875.928833 387.747589,877.521790 387.174744,881.371033 
	C386.888672,883.293579 387.635071,885.383484 386.584534,886.726196 
	C379.700165,888.413208 373.112915,887.096863 365.866821,887.179993 
	C364.080658,885.365784 366.535736,882.231384 365.249451,879.738586 
	C364.950043,879.823059 364.468231,879.892151 364.467010,879.968811 
	C364.383057,885.267029 363.295258,888.728149 356.392242,887.709229 
	C351.822998,887.034729 346.883087,886.634827 342.141052,888.064636 
	C340.805756,888.467224 338.711060,887.040100 339.210205,886.214294 
	C340.902985,883.413574 338.849487,881.173096 338.809662,878.700256 
	C338.777405,876.697388 339.915863,875.589111 341.870117,875.495728 
	C343.020294,875.440735 344.182434,875.730347 345.342468,875.771057 
	C353.796204,876.067749 353.796478,876.060181 356.167023,883.963623 
	C357.738342,881.502625 356.426910,878.663452 358.377441,876.539185 
z"/>
</svg>