<svg version="1.1" id="Layer_1" xmlns="http://www.w3.org/2000/svg" xmlns:xlink="http://www.w3.org/1999/xlink" x="0px" y="0px"
	 width="100%" viewBox="0 0 1024 976" enable-background="new 0 0 1024 976" xml:space="preserve">
<path fill="#000000" opacity="1.000000" stroke="none" 
	d="
M207.001495,638.990234 
	C206.865372,560.170837 206.767517,481.849304 206.561325,403.528046 
	C206.523621,389.202911 206.331787,374.865509 205.660294,360.559631 
	C205.269226,352.228088 207.943024,345.211365 212.513016,338.634369 
	C223.688141,322.551483 238.903931,310.915619 255.300934,300.841248 
	C289.823883,279.630127 325.782928,261.029205 362.216949,243.353775 
	C366.176178,241.432999 367.885956,239.310822 367.846436,234.718521 
	C367.756226,224.235855 368.309662,213.744141 368.756989,203.262726 
	C368.878052,200.426086 368.190826,198.335526 366.196747,196.136581 
	C361.137848,190.557877 362.856964,184.094589 370.063782,181.616333 
	C383.695465,176.928726 397.961395,175.239761 412.189240,173.852524 
	C452.007996,169.970139 491.969604,168.855728 531.947510,169.171524 
	C562.910461,169.416122 593.866638,170.519699 624.510742,175.649094 
	C630.919556,176.721863 637.274048,178.066101 643.290283,180.620224 
	C650.629211,183.735916 653.446350,188.368759 650.928223,195.683624 
	C649.043762,201.157791 649.215454,206.498230 649.516052,211.913834 
	C649.969177,220.078049 650.402954,228.230423 649.412170,236.358017 
	C648.895996,240.592163 651.647339,241.793594 654.638245,243.108261 
	C681.818787,255.055618 707.980347,269.000641 733.722656,283.738068 
	C750.051086,293.085999 766.623596,302.093994 781.126892,314.284485 
	C800.751587,330.779755 810.544922,351.453522 809.033386,377.470734 
	C807.380432,405.925293 808.805176,434.451324 807.919067,462.927551 
	C806.944580,494.244537 807.816040,525.576294 806.869202,556.885681 
	C805.881775,589.537231 806.787476,622.206726 805.852661,654.849182 
	C805.103577,681.005798 805.656677,707.164734 805.034363,733.315430 
	C804.852112,740.971802 804.542297,748.625061 804.312744,756.280457 
	C804.262207,757.965149 804.086426,759.502380 802.897217,760.914917 
	C793.408020,772.185181 781.742554,779.297852 766.884094,781.366699 
	C748.889160,783.872375 730.776672,784.787537 712.704590,786.257019 
	C688.156311,788.253052 663.598633,790.137451 639.037048,791.964172 
	C623.266724,793.137024 607.490601,794.268188 591.702576,795.160583 
	C541.804260,797.980896 491.880737,799.960388 441.883301,799.316711 
	C408.069519,798.881348 374.357391,796.958130 340.702972,793.555725 
	C316.040039,791.062317 291.294128,789.397827 266.596588,787.234314 
	C256.322937,786.334290 246.085602,785.075867 235.952423,783.054443 
	C229.331451,781.733582 224.342789,778.235779 219.492050,773.485962 
	C210.735687,764.911743 207.052979,755.535706 207.471893,742.936829 
	C208.390610,715.307312 207.672882,687.622253 207.546890,659.960144 
	C207.515808,653.135437 207.191864,646.312134 207.001495,638.990234 
M569.180115,790.619934 
	C602.062134,788.341614 634.951111,786.158203 667.824158,783.757324 
	C698.536316,781.514343 729.251892,779.270020 759.925171,776.564392 
	C773.769226,775.343262 786.837097,771.673706 795.975342,759.765808 
	C797.689697,757.531860 798.811218,755.494202 798.842834,752.631714 
	C799.045532,734.306030 799.401855,715.982117 799.650085,697.656799 
	C799.970459,674.000061 800.208069,650.338318 800.409912,626.684692 
	C800.953003,563.033691 801.573792,499.385803 802.626221,435.740997 
	C802.976196,414.579224 802.892090,393.410614 803.128296,372.246490 
	C803.233459,362.819458 802.764404,353.438080 798.211548,345.001526 
	C787.833618,325.770905 772.952454,311.273590 752.254395,303.434753 
	C745.568054,300.902466 738.658203,298.939758 731.800354,296.884308 
	C681.510498,281.811646 630.030029,273.331635 577.761230,269.371399 
	C554.672607,267.622070 531.537109,266.699127 508.383057,266.287140 
	C507.049591,266.263397 505.231140,266.840271 504.795105,264.650513 
	C510.498108,261.210815 592.486328,266.207855 626.236938,271.103180 
	C666.575806,276.954071 706.221375,285.646729 745.250061,297.400391 
	C725.402039,284.984497 704.957031,273.792236 684.037842,263.532013 
	C665.101257,254.244156 646.649170,243.546524 625.184509,240.636490 
	C617.277039,239.564438 609.415466,238.157440 601.524780,236.957153 
	C571.192200,232.343216 540.654175,229.922974 510.004761,229.489639 
	C474.456665,228.987061 439.160461,232.327133 404.181854,238.623047 
	C391.438446,240.916763 378.438843,242.557800 366.481049,247.948395 
	C356.309601,252.533691 346.280792,257.455322 336.330322,262.506744 
	C314.383118,273.648376 292.827606,285.511749 271.428497,298.066528 
	C271.891907,298.307739 272.062836,298.474915 272.168518,298.440674 
	C314.243439,284.801422 357.138275,274.803131 401.064911,269.377808 
	C402.929657,269.147491 404.945557,268.270264 406.277954,270.447144 
	C405.424072,272.360199 403.778076,272.178894 402.344452,272.389130 
	C394.605865,273.523804 386.849915,274.546722 379.125031,275.766968 
	C344.861084,281.179352 311.252289,289.411835 278.157104,299.719391 
	C270.397766,302.136017 262.163086,303.665100 255.232071,308.089417 
	C243.382095,315.653656 232.902374,324.942657 223.518707,335.426239 
	C214.324142,345.698578 208.817535,357.164246 211.798187,371.458008 
	C212.300598,373.867432 212.058945,376.440674 212.087158,378.939026 
	C212.552048,420.097382 212.294632,461.257660 212.806793,502.419220 
	C213.845581,585.903748 212.752396,669.403381 214.179459,752.888306 
	C214.213242,754.864563 213.528229,757.175476 214.856415,758.741089 
	C221.576569,766.662598 227.278931,775.652771 238.825211,777.901733 
	C248.338181,779.754578 257.924255,780.702393 267.514832,781.574524 
	C292.707336,783.865295 317.961456,785.503845 343.134491,787.977295 
	C376.968750,791.301819 410.871887,793.127197 444.845459,793.630249 
	C486.008362,794.239929 527.121033,792.335754 569.180115,790.619934 
M374.465088,237.425049 
	C376.393127,239.817978 378.565033,237.955643 380.425781,237.517853 
	C408.174011,230.989563 436.312469,226.972946 464.700104,224.903137 
	C488.954498,223.134705 513.247131,223.101318 537.557556,224.575073 
	C566.145020,226.308090 594.542419,229.455139 622.732239,234.487473 
	C629.521545,235.699509 636.295959,236.995087 643.460754,238.323334 
	C644.004517,226.279556 643.653137,214.861557 642.140869,203.474442 
	C641.770081,200.682068 640.270569,199.122223 637.590088,198.207382 
	C632.212646,196.372086 626.747620,195.009064 621.118469,194.283188 
	C592.341553,190.572388 563.360291,190.193069 534.431885,189.472656 
	C499.646576,188.606369 464.837646,188.751923 430.103973,191.409805 
	C414.856354,192.576584 399.579865,193.565704 384.507233,196.401581 
	C376.910858,197.830841 375.722107,198.824310 375.393372,205.714005 
	C374.901703,216.018967 374.629913,226.334412 374.465088,237.425049 
M645.065369,192.331924 
	C645.128662,189.190643 643.329285,187.336380 640.601990,186.413849 
	C637.145630,185.244720 633.656860,184.050308 630.086792,183.358063 
	C604.015503,178.302628 577.547058,177.207169 551.128540,176.525757 
	C508.844208,175.435135 466.562103,176.472870 424.354980,179.430267 
	C409.269226,180.487289 394.164185,181.697083 379.398376,185.294968 
	C376.993164,185.881027 374.624969,186.731354 372.358856,187.730072 
	C371.161346,188.257843 370.085968,189.421478 370.668427,190.959824 
	C371.345154,192.747055 372.812866,192.676804 374.424133,192.236801 
	C377.788483,191.318054 381.147583,190.319077 384.570343,189.684845 
	C414.448395,184.148392 444.733917,182.933731 474.977905,182.013458 
	C515.764954,180.772400 556.558350,181.733871 597.249573,184.946213 
	C612.786194,186.172745 628.547729,186.823517 643.162781,193.374969 
	C643.790466,193.656326 644.463684,193.578735 645.065369,192.331924 
z"/>
<path fill="#000000" opacity="1.000000" stroke="none" 
	d="
M795.405029,607.000000 
	C795.404236,656.032654 795.404236,704.565186 795.404236,753.097778 
	C794.437622,753.093079 793.471008,753.088379 792.504456,753.083740 
	C793.200562,627.841248 793.896729,502.598816 794.592834,377.356384 
	C795.152527,377.357758 795.712280,377.359131 796.271973,377.360504 
	C796.527893,453.740570 796.315247,530.120422 795.405029,607.000000 
z"/>
</svg>