<svg version="1.1" id="Layer_1" xmlns="http://www.w3.org/2000/svg" xmlns:xlink="http://www.w3.org/1999/xlink" x="0px" y="0px"
	 width="100%" viewBox="0 0 576 1024" enable-background="new 0 0 576 1024" xml:space="preserve">
<path fill="none" opacity="1.000000" stroke="#000000" stroke-linecap="round" stroke-linejoin="round" stroke-width="4.000000"
	d="
M338.000000,251.500000 
	C336.732330,256.592377 337.036926,261.911652 336.814301,267.013702 
	C336.436493,275.672760 335.639008,284.321259 335.398041,292.997162 
	C335.046143,305.670532 333.978699,318.322327 333.337799,330.991791 
	C332.747650,342.657806 331.949615,354.317261 331.369965,365.993530 
	C330.724609,378.993713 329.991028,391.990356 329.339355,404.991943 
	C328.746216,416.824707 327.930786,428.648865 327.377197,440.494263 
	C326.730713,454.327789 325.942261,468.153351 325.342926,481.993195 
	C324.837738,493.658539 323.862579,505.308990 323.399323,516.996033 
	C322.817261,531.679260 321.453857,546.330383 320.521515,561.001343 
	C320.119354,567.329712 320.050690,573.691833 319.789307,580.011963 
	C319.410492,589.171326 318.661285,598.325439 318.352356,607.495056 
	C317.919983,620.329895 316.978271,633.155945 316.333282,645.991638 
	C315.772217,657.157043 314.930237,668.314575 314.366730,679.493286 
	C313.736603,691.993530 312.943085,704.484924 312.353119,716.993103 
	C311.779327,729.159668 311.007080,741.324463 310.343842,753.491516 
	C309.653442,766.158264 309.129974,778.835999 308.350006,791.490784 
	C307.620697,803.324219 306.296722,815.117676 306.545105,827.192139 
	C315.952209,828.347473 325.394012,829.843445 335.284698,829.426086 
	C335.337280,823.318970 336.390930,817.730835 336.648010,812.006653 
	C337.127136,801.337341 336.953766,790.619507 338.421173,779.989136 
	C338.755737,777.565308 338.986786,774.945312 338.000000,772.500000 
"/>
<path fill="none" opacity="1.000000" stroke="#000000" stroke-linecap="round" stroke-linejoin="round" stroke-width="4.000000"
	d="
M453.000000,230.500000 
	C454.060760,238.967010 453.499451,247.505661 454.366119,256.013641 
	C455.565979,267.792664 455.705231,279.675568 456.526642,291.498138 
	C458.240234,316.161804 460.904358,340.739410 461.734070,365.492157 
	C462.242828,380.669556 462.112274,395.834991 462.517761,410.999512 
	C464.064148,468.826782 462.719696,526.676270 463.711090,584.496399 
	C464.399933,624.669800 464.204926,664.833008 464.498444,705.000000 
	C464.510742,706.683289 464.500000,708.366638 464.500000,710.500000 
	C453.005035,710.500000 441.999939,710.632324 431.001617,710.416931 
	C427.824371,710.354797 424.666656,711.908081 421.500000,710.500000 
"/>
<path fill="none" opacity="1.000000" stroke="#000000" stroke-linecap="round" stroke-linejoin="round" stroke-width="4.000000"
	d="
M335.000000,1.500000 
	C334.500000,17.333334 334.454071,33.199890 333.299133,48.985306 
	C332.760864,56.341888 332.726593,63.662033 332.504700,71.000145 
	C332.337830,76.519394 331.184204,78.083107 325.999023,79.496361 
	C299.117218,86.823166 272.282654,94.320862 245.444489,101.800827 
	C213.775650,110.627121 182.129593,119.532013 150.474289,128.408310 
	C116.922089,137.816513 83.148422,146.432755 49.515251,155.556229 
	C42.714714,157.400970 36.131062,160.054016 29.000000,160.500000 
"/>
<path fill="none" opacity="1.000000" stroke="#000000" stroke-linecap="round" stroke-linejoin="round" stroke-width="4.000000"
	d="
M371.000000,66.999992 
	C380.333344,64.666656 389.662262,62.315422 399.005524,60.022438 
	C400.186493,59.732601 400.256104,58.624832 400.418793,57.979527 
	C401.131012,55.154682 402.962158,53.541363 405.907410,52.686569 
	C408.616455,53.926277 408.475739,56.731350 408.506683,59.499924 
	C408.713409,78.002121 409.315369,96.498596 409.683411,114.996353 
	C410.084656,135.161514 410.233612,155.344650 411.095398,175.495926 
	C411.637512,188.172791 410.926239,200.850723 411.567902,213.496552 
	C412.827789,238.326065 411.759277,263.187805 412.711945,287.991852 
	C413.391052,305.673309 412.502869,323.381531 413.713318,340.985321 
	C414.792786,356.684326 413.347534,372.395630 414.741302,387.978424 
	C415.608612,397.675079 414.556458,407.380219 415.962738,417.005432 
	C416.078461,417.797546 415.666656,418.666656 415.500000,419.500000 
"/>
<path fill="none" opacity="1.000000" stroke="#000000" stroke-linecap="round" stroke-linejoin="round" stroke-width="4.000000"
	d="
M401.000000,61.500000 
	C403.580109,63.819580 403.419769,67.005028 403.466187,70.000526 
	C403.858734,95.332939 403.503601,120.698425 404.715118,145.989700 
	C405.642303,165.345947 404.366821,184.716522 405.698547,203.986282 
	C406.990631,222.682739 406.101044,241.334274 406.459198,260.000793 
	C406.996368,287.997223 407.116913,316.012543 407.819763,343.991974 
	C408.284698,362.501587 407.948151,381.004028 408.508026,399.499756 
	C408.619080,403.168091 408.833344,406.833344 409.000000,410.500000 
"/>
<path fill="none" opacity="1.000000" stroke="#000000" stroke-linecap="round" stroke-linejoin="round" stroke-width="4.000000"
	d="
M458.500000,3.500000 
	C474.246338,99.645737 487.812073,196.119690 502.957794,293.117401 
	C491.666656,292.198883 481.332886,292.486481 471.000214,292.540527 
	C466.502594,292.564026 461.967010,291.942657 457.500000,293.000000 
"/>
<path fill="none" opacity="1.000000" stroke="#000000" stroke-linecap="round" stroke-linejoin="round" stroke-width="4.000000"
	d="
M357.000000,442.500000 
	C356.586548,468.168365 355.827637,493.832764 355.218903,519.493347 
	C354.918518,532.156677 355.024811,544.841064 354.469574,557.498657 
	C353.110352,588.485840 353.076202,619.501831 352.240265,650.492981 
	C351.740967,669.002686 351.863342,687.500549 351.532166,706.000549 
	C351.514557,706.985291 350.985657,708.141296 352.540802,709.500305 
	C368.347961,709.022217 384.628723,711.197998 401.001007,710.524841 
	C402.832092,710.449524 404.728180,710.156616 406.500000,711.000000 
"/>
<path fill="none" opacity="1.000000" stroke="#000000" stroke-linecap="round" stroke-linejoin="round" stroke-width="4.000000"
	d="
M538.000000,792.000061 
	C527.166687,797.666687 516.361572,803.388062 505.493256,808.986938 
	C490.186676,816.872192 474.806915,824.615479 459.506622,832.512817 
	C440.164795,842.496277 420.973724,852.761841 401.575958,862.648987 
	C369.961121,878.763428 338.885529,895.932495 307.481842,912.465515 
	C286.243835,923.646606 264.781586,934.401062 243.512177,945.523315 
	C212.131607,961.932983 180.833359,978.500061 149.499573,994.999207 
	C149.169861,995.172729 148.828705,995.324707 148.500641,995.501160 
	C137.272659,1001.540771 137.119263,1001.587585 125.001930,998.492432 
	C112.127777,995.203979 99.011055,993.100464 86.027435,990.369568 
	C71.696510,987.355225 57.302212,984.612427 42.950920,981.745667 
	C30.968981,979.352173 19.089722,976.352661 6.987211,974.587708 
	C5.284378,974.339355 4.147820,973.056519 2.500000,973.000000 
"/>
<path fill="none" opacity="1.000000" stroke="#000000" stroke-linecap="round" stroke-linejoin="round" stroke-width="4.000000"
	d="
M308.000000,772.000000 
	C302.996613,771.533752 298.042877,770.733643 293.005859,770.409119 
	C280.826477,769.624390 268.620758,769.170959 256.488434,767.588806 
	C251.213196,766.900818 245.791229,766.929199 240.491745,766.762878 
	C231.815857,766.490662 223.126541,765.906372 214.518555,765.254883 
	C202.851730,764.372009 191.113235,764.312561 179.482101,762.623291 
	C174.235718,761.861328 168.838562,762.271484 163.483292,761.642151 
	C155.882416,760.748901 148.129013,761.199829 140.508530,760.416992 
	C128.027390,759.134827 115.481705,759.029846 103.006599,757.925476 
	C92.845161,757.025940 82.651123,757.281677 72.485840,756.796936 
	C60.849991,756.242188 49.184429,755.503601 37.501968,755.350037 
	C25.493095,755.192261 13.499999,753.833313 1.500000,753.000000 
"/>
<path fill="none" opacity="1.000000" stroke="#000000" stroke-linecap="round" stroke-linejoin="round" stroke-width="5.000000"
	d="
M309.500000,474.000000 
	C302.613403,473.241638 295.849060,474.940277 289.011658,475.254089 
	C283.216827,475.520111 277.328186,476.290710 271.500885,477.007141 
	C261.852966,478.193390 252.112305,478.357788 242.483932,479.899689 
	C238.391205,480.555084 234.166809,480.410858 229.985107,480.861969 
	C217.192749,482.241821 204.305008,482.731537 191.508621,484.081696 
	C180.517380,485.241394 169.523239,486.214233 158.506683,487.084534 
	C146.310791,488.048004 134.179016,489.795410 121.996521,490.963715 
	C109.845718,492.129089 97.640755,492.761383 85.508553,494.078766 
	C76.507050,495.056183 67.442421,495.314697 58.478024,496.873627 
	C54.082764,497.637970 49.502991,497.375458 44.985970,497.872467 
	C31.191278,499.390350 17.333334,500.333344 3.500002,501.500031 
"/>
<path fill="none" opacity="1.000000" stroke="#000000" stroke-linecap="round" stroke-linejoin="round" stroke-width="4.000000"
	d="
M1.500010,720.000000 
	C2.000010,720.166626 2.495074,720.461487 3.000742,720.480957 
	C12.333065,720.840332 21.687197,720.885681 30.995197,721.565735 
	C44.984695,722.587891 58.990593,723.012878 72.992783,723.656921 
	C85.658936,724.239624 98.302521,725.269043 110.997505,725.596558 
	C120.496056,725.841675 130.050064,725.969727 139.477463,726.766602 
	C147.518311,727.446350 155.515533,726.931274 163.497345,727.535034 
	C180.144440,728.794250 196.831177,728.982727 213.487869,729.759949 
	C220.990540,730.110107 228.515686,729.955261 235.996887,730.539795 
	C250.479904,731.671326 264.993103,732.026123 279.487762,732.746338 
	C285.817780,733.060913 292.163910,733.219177 298.500000,733.500000 
"/>
<path fill="none" opacity="1.000000" stroke="#000000" stroke-linecap="round" stroke-linejoin="round" stroke-width="4.000000"
	d="
M419.500000,3.500000 
	C422.262848,11.775760 422.319183,20.482004 423.444458,29.007332 
	C425.156616,41.979332 426.389923,55.013897 428.029022,67.996338 
	C429.903778,82.845482 432.168640,97.646324 433.961243,112.504677 
	C436.774139,135.820358 439.315796,159.168701 442.007660,182.499115 
	C443.296661,193.670898 444.489075,204.859344 446.117645,215.982773 
	C446.556122,218.977295 446.112793,222.023392 447.349640,225.061218 
	C448.510315,227.912048 446.982788,230.284546 443.499359,230.488815 
	C434.658936,231.007233 426.241394,233.931778 417.500000,235.000000 
"/>
<path fill="none" opacity="1.000000" stroke="#000000" stroke-linecap="round" stroke-linejoin="round" stroke-width="4.000000"
	d="
M406.500000,435.500000 
	C408.041687,442.106262 407.462585,448.822815 407.482330,455.500061 
	C407.534515,473.166565 406.695587,490.880035 407.717773,508.487366 
	C408.822296,527.512817 407.606476,546.525024 408.627655,565.493103 
	C409.498505,581.669189 408.790527,597.860474 409.653717,613.991760 
	C410.662109,632.836731 409.743744,651.690796 410.651581,670.492676 
	C411.578033,689.679871 410.139160,708.935791 411.431305,727.970703 
	C412.894958,749.531738 411.141754,771.044006 412.729675,792.482971 
	C413.376526,801.216614 412.937653,809.831299 413.758453,819.153259 
	C416.623230,820.610779 420.623596,819.924744 424.500305,819.976318 
	C430.999176,820.062805 437.517426,820.282227 443.992737,819.882507 
	C447.289703,819.678894 450.252045,821.529724 453.500000,820.750000 
"/>
<path fill="none" opacity="1.000000" stroke="#000000" stroke-linecap="round" stroke-linejoin="round" stroke-width="4.000000"
	d="
M200.500000,590.500000 
	C186.833374,590.834961 173.143570,591.124207 159.513763,591.784180 
	C148.160446,592.333862 136.754776,591.421875 125.519890,592.677917 
	C112.149994,594.172607 98.822304,592.725647 85.217987,593.713562 
	C82.897575,597.823303 83.329117,602.837341 82.621826,607.518433 
	C80.583038,621.011658 78.659775,634.526123 76.716629,648.031189 
	C75.548180,656.151917 74.183708,664.283142 73.366379,672.486694 
	C72.447327,681.711243 70.489471,690.831665 69.030891,700.004883 
	C68.957458,700.466736 69.333321,701.000000 69.499992,701.500000 
"/>
<path fill="none" opacity="1.000000" stroke="#000000" stroke-linecap="round" stroke-linejoin="round" stroke-width="4.000000"
	d="
M415.000000,507.500000 
	C414.198730,509.103210 414.526855,510.824951 414.509308,512.500122 
	C414.210571,541.007202 415.371277,569.501587 415.833160,597.994629 
	C416.111328,615.156555 415.400024,632.381653 416.667511,649.487610 
	C418.002960,667.510559 416.333252,685.554199 417.688843,703.485718 
	C419.077087,721.848816 417.341003,740.215393 418.674896,758.487244 
	C419.978607,776.346069 418.980896,794.170227 419.513336,811.999573 
	C419.583069,814.335815 419.833344,816.666687 420.000000,819.000000 
"/>
<path fill="none" opacity="1.000000" stroke="#000000" stroke-linecap="round" stroke-linejoin="round" stroke-width="4.000000"
	d="
M2.500000,548.000000 
	C15.604068,551.531555 28.166782,556.666382 40.996948,561.009033 
	C53.677570,565.301086 66.343132,569.638733 78.973915,574.074280 
	C79.678505,574.321777 80.329422,574.538940 80.998077,574.478638 
	C88.381416,573.813416 95.643738,575.672607 103.000000,575.499939 
	C124.179764,575.002625 145.338013,576.357483 166.490997,576.871033 
	C177.456955,577.137207 188.550568,576.387634 199.500000,578.000000 
"/>
<path fill="none" opacity="1.000000" stroke="#000000" stroke-linecap="round" stroke-linejoin="round" stroke-width="4.000000"
	d="
M360.499969,297.000000 
	C360.166656,298.833344 359.516937,300.672272 359.549377,302.499115 
	C359.840424,318.876526 358.139771,335.168610 357.363098,351.493500 
	C356.687561,365.691437 354.690308,379.822052 353.571533,394.005646 
	C353.133362,399.560028 353.425171,404.862152 356.872314,410.084290 
	C373.316345,434.995575 388.658997,460.598755 403.565399,486.462311 
	C404.313812,487.760895 405.016083,489.437469 406.750000,490.000000 
"/>
<path fill="none" opacity="1.000000" stroke="#000000" stroke-linecap="round" stroke-linejoin="round" stroke-width="3.000000"
	d="
M320.000000,314.500000 
	C320.413483,306.162384 320.826935,297.824799 321.271454,288.861237 
	C314.509277,284.772614 306.460876,282.686707 298.489014,280.540802 
	C281.640472,276.005402 264.439606,273.822784 247.000488,274.039124 
	C221.536865,274.354980 197.356094,280.254974 174.506744,291.513702 
	C169.626266,293.918488 165.173050,296.988129 160.959961,300.451294 
	C159.430527,301.708527 157.854340,303.312897 155.500000,303.000000 
"/>
<path fill="none" opacity="1.000000" stroke="#000000" stroke-linecap="round" stroke-linejoin="round" stroke-width="3.000000"
	d="
M317.500000,381.000000 
	C303.758850,374.410553 289.266632,369.834167 274.454651,366.715393 
	C265.666168,364.864899 256.623779,363.467194 247.499969,363.481812 
	C232.596405,363.505707 217.681885,362.983002 202.993927,366.474426 
	C181.909012,371.486420 162.491318,379.445282 147.992722,396.493805 
	C143.977951,401.214722 141.319336,406.624451 139.488342,412.496368 
	C139.047058,413.911530 138.833527,415.547760 137.000000,416.000000 
"/>
<path fill="none" opacity="1.000000" stroke="#000000" stroke-linecap="round" stroke-linejoin="round" stroke-width="3.000000"
	d="
M318.000000,371.000000 
	C306.235870,365.335266 293.618378,362.280701 280.976135,359.613068 
	C267.019073,356.668060 252.775620,355.224182 238.501907,355.576996 
	C211.640594,356.240997 186.012711,361.526550 162.953033,376.427307 
	C151.314972,383.947601 142.060806,393.124207 137.463394,406.487396 
	C136.251648,410.009583 134.977570,413.212219 136.841431,417.076477 
	C137.667862,418.789917 137.648605,421.204071 137.102036,423.524048 
	C135.405884,430.723450 133.768616,437.987549 134.960815,445.506226 
	C135.085617,446.293335 134.889801,447.307770 134.465759,447.978333 
	C129.823792,455.318970 130.891907,462.869263 133.500000,470.500000 
"/>
<path fill="none" opacity="1.000000" stroke="#000000" stroke-linecap="round" stroke-linejoin="round" stroke-width="4.000000"
	d="
M388.500000,85.500000 
	C387.272583,90.333336 388.511627,95.166649 388.510529,100.000000 
	C388.504456,127.003922 389.399353,153.997467 389.745422,180.996857 
	C389.984528,199.652664 389.843201,218.351776 391.028625,236.998184 
	C391.179535,239.371521 389.452515,239.669556 387.991241,239.955261 
	C379.842804,241.548370 371.666656,243.000000 363.500000,244.500000 
"/>
<path fill="none" opacity="1.000000" stroke="#000000" stroke-linecap="round" stroke-linejoin="round" stroke-width="3.000000"
	d="
M314.500000,421.000000 
	C302.637543,417.171478 290.786255,413.277374 278.495667,411.023651 
	C268.579468,409.205292 258.581421,407.709839 248.499023,407.570770 
	C234.308792,407.375061 220.114700,407.054962 205.990387,409.443115 
	C180.565811,413.741943 157.334274,422.292877 139.481049,441.982819 
	C138.366394,443.212128 137.355362,444.696045 135.500000,445.000000 
"/>
<path fill="none" opacity="1.000000" stroke="#000000" stroke-linecap="round" stroke-linejoin="round" stroke-width="4.000000"
	d="
M372.500000,10.500000 
	C371.945740,29.334234 371.344116,48.191505 370.408295,66.982979 
	C369.329224,88.649574 368.443817,110.325531 367.442108,131.997330 
	C366.317566,156.326828 365.302887,180.657822 364.346893,204.993988 
	C363.757690,219.993164 363.249420,235.010223 362.368317,249.992249 
	C361.535217,264.158295 361.188354,278.334351 360.506897,292.500336 
	C360.411377,294.486237 361.091644,295.586212 362.843872,297.172455 
	C371.934967,305.402374 377.848175,315.377045 379.757812,327.960876 
	C380.768494,334.620972 380.308929,341.592102 382.975922,348.010010 
	C383.615875,349.550049 382.198456,350.801605 382.000000,352.250000 
"/>
<path fill="none" opacity="1.000000" stroke="#000000" stroke-linecap="round" stroke-linejoin="round" stroke-width="4.000000"
	d="
M469.000000,724.000000 
	C469.821991,724.502808 469.508789,725.320862 469.483978,725.999390 
	C468.843231,743.519104 470.720917,760.989319 470.515137,778.500183 
	C470.509125,779.009827 470.727448,779.522095 470.882660,780.219482 
	C486.475769,782.654785 501.956940,785.309937 517.515991,787.379639 
	C523.323303,788.152161 529.186096,788.679565 534.997253,789.518860 
	C540.011780,790.243042 540.961853,791.400330 540.992004,796.500061 
	C541.026489,802.333130 542.218140,808.508545 540.700623,813.915955 
	C538.670898,821.148621 530.776428,823.803406 525.436096,828.426147 
	C520.230164,832.932556 514.474060,836.799683 509.010925,841.014160 
	C506.265961,843.131531 504.827057,845.552734 504.868896,849.501404 
	C505.257355,886.165710 505.333313,922.833313 505.499969,959.500000 
"/>
<path fill="none" opacity="1.000000" stroke="#000000" stroke-linecap="round" stroke-linejoin="round" stroke-width="4.000000"
	d="
M53.999996,1.500000 
	C52.499996,11.333333 51.067539,21.177563 49.483334,30.997311 
	C47.384304,44.008224 45.166664,57.000000 43.000000,70.000000 
	C40.833332,83.000000 38.677212,96.001770 36.497017,108.999496 
	C34.344009,121.835129 32.230484,134.677872 29.981321,147.496719 
	C27.902374,159.345444 25.668261,171.166962 23.498684,182.999756 
	C23.055046,185.419342 24.836838,186.899902 26.039499,188.469742 
	C49.819805,219.510361 73.670227,250.497269 97.494812,281.503998 
	C100.033310,284.807739 102.641060,288.072021 104.959106,291.527435 
	C107.142288,294.781830 109.245033,295.783142 113.551102,294.703857 
	C123.775452,292.141235 134.282227,290.717804 144.500000,288.000000 
"/>
<path fill="none" opacity="1.000000" stroke="#000000" stroke-linecap="round" stroke-linejoin="round" stroke-width="3.000000"
	d="
M322.500000,278.000000 
	C312.247009,275.167877 302.162292,271.855103 291.515930,270.384613 
	C274.871826,268.085632 258.335846,267.006927 241.484894,268.303650 
	C224.148575,269.637695 207.416687,273.107056 191.007294,278.522095 
	C178.954651,282.499359 167.258163,288.069061 158.810226,297.284393 
	C151.149582,305.640869 142.705444,314.536194 141.548233,327.004486 
	C140.792480,335.147400 140.509888,343.333984 139.988831,351.499298 
	C139.914291,352.667206 140.249969,353.638885 141.000000,354.500000 
"/>
<path fill="none" opacity="1.000000" stroke="#000000" stroke-linecap="round" stroke-linejoin="round" stroke-width="4.000000"
	d="
M3.500000,315.500000 
	C4.603432,301.206757 7.393106,287.143219 9.646590,273.023407 
	C11.380459,262.159332 13.380048,251.301224 15.240073,240.455429 
	C16.538708,232.883072 18.460703,225.278305 18.443466,217.500122 
	C18.437523,214.818634 19.745756,213.122879 21.468256,210.853500 
	C30.270952,221.551834 37.685337,232.554199 44.518330,243.989044 
	C57.940559,266.450806 74.740326,286.056854 95.632729,301.824127 
	C100.865616,305.773315 102.127365,310.349884 102.501236,315.999908 
	C103.977943,338.316345 103.895164,360.674652 103.354950,382.996490 
	C102.881592,402.555908 101.635521,422.104675 98.607552,441.516785 
	C96.697762,453.760193 95.833328,466.166656 94.500000,478.500000 
"/>
<path fill="none" opacity="1.000000" stroke="#000000" stroke-linecap="round" stroke-linejoin="round" stroke-width="4.000000"
	d="
M331.500000,105.500000 
	C331.166656,110.666664 330.713074,115.828957 330.524628,121.000900 
	C330.111786,132.331329 330.083496,143.680893 329.440399,154.996613 
	C328.512543,171.323013 328.100372,187.669708 327.290314,203.989594 
	C326.661621,216.655121 326.317444,229.340179 325.539581,242.002426 
	C324.915955,252.153976 323.946289,262.304260 324.500000,272.500000 
"/>
<path fill="none" opacity="1.000000" stroke="#000000" stroke-linecap="round" stroke-linejoin="round" stroke-width="3.000000"
	d="
M29.000000,1.500000 
	C27.255470,11.516281 25.345833,21.517878 23.704924,31.533573 
	C21.711359,43.701775 19.530804,55.838566 17.486301,67.997696 
	C15.718912,78.508781 13.727141,88.982811 12.024179,99.503914 
	C9.274710,116.490479 5.942577,133.386414 4.000000,150.500000 
"/>
<path fill="none" opacity="1.000000" stroke="#000000" stroke-linecap="round" stroke-linejoin="round" stroke-width="4.000000"
	d="
M452.500000,877.500000 
	C452.166687,887.166687 451.809052,896.832520 451.505219,906.500183 
	C450.927277,924.889160 449.463501,943.204041 447.589905,961.509216 
	C446.078979,976.271362 445.828918,990.970459 450.231689,1005.580872 
	C451.733368,1010.564392 452.643005,1016.092224 453.000000,1021.500000 
"/>
<path fill="none" opacity="1.000000" stroke="#000000" stroke-linecap="round" stroke-linejoin="round" stroke-width="3.000000"
	d="
M425.500000,912.500000 
	C407.397125,925.888306 391.583862,941.929626 374.543854,956.551086 
	C358.505920,970.312683 342.899384,984.576172 326.936096,998.426331 
	C324.221863,1000.781189 320.769196,1002.379883 317.481232,1003.960938 
	C306.529236,1009.227356 296.109314,1015.630554 284.500000,1019.500000 
"/>
<path fill="none" opacity="1.000000" stroke="#000000" stroke-linecap="round" stroke-linejoin="round" stroke-width="3.000000"
	d="
M321.500000,322.500000 
	C299.868103,312.809021 277.156830,308.191132 253.502808,307.414429 
	C240.903610,307.000702 228.407837,307.489136 216.011063,309.566010 
	C208.355072,310.848633 200.864929,313.004791 193.510818,315.531494 
	C191.952362,316.066956 190.351608,316.848999 190.500000,319.000000 
"/>
<path fill="none" opacity="1.000000" stroke="#000000" stroke-linecap="round" stroke-linejoin="round" stroke-width="3.000000"
	d="
M320.000000,328.500000 
	C306.347961,321.913177 291.963562,317.808289 277.006470,315.458771 
	C266.058014,313.738892 255.065353,312.354187 244.001724,312.583405 
	C228.321182,312.908295 212.907578,315.557129 197.467590,318.318756 
	C184.570526,320.625549 173.471451,325.894958 162.915390,333.380676 
	C154.380157,339.433319 147.844940,346.942078 142.461929,355.726685 
	C140.775131,358.479340 140.697662,361.632172 140.162399,364.529999 
	C138.546066,373.280273 137.466721,382.147125 136.601212,391.009888 
	C136.268311,394.418884 135.786865,398.261627 139.000000,401.000000 
"/>
<path fill="none" opacity="1.000000" stroke="#000000" stroke-linecap="round" stroke-linejoin="round" stroke-width="3.000000"
	d="
M252.500000,221.000000 
	C247.751846,223.498062 243.090103,225.995712 240.933685,231.473892 
	C240.064560,233.681824 237.457581,234.162537 235.476410,234.939865 
	C226.638489,238.407547 219.753067,244.299118 214.601288,252.067169 
	C212.389008,255.402939 209.763687,257.247559 206.003769,258.018372 
	C194.199081,260.438477 182.758530,263.949097 171.995560,269.491364 
	C157.904129,276.747559 148.493591,287.578979 145.428513,303.486237 
	C145.006119,305.678375 144.651123,307.598511 146.000000,309.500000 
"/>
<path fill="none" opacity="1.000000" stroke="#000000" stroke-linecap="round" stroke-linejoin="round" stroke-width="4.000000"
	d="
M307.500000,521.000000 
	C299.333344,520.166626 291.182587,519.043091 282.994873,518.593628 
	C276.663330,518.246033 270.318970,517.864136 263.994965,517.645264 
	C250.344650,517.172913 236.651245,517.101685 223.005051,517.630188 
	C212.709702,518.028992 202.498077,519.729309 193.495834,525.493469 
	C187.982864,529.023499 187.100266,530.819031 189.000000,535.000000 
"/>
<path fill="none" opacity="1.000000" stroke="#000000" stroke-linecap="round" stroke-linejoin="round" stroke-width="4.000000"
	d="
M425.000000,914.500000 
	C426.508972,923.166687 425.165833,931.856079 424.848938,940.494446 
	C424.414520,952.337646 425.353180,964.220398 424.337585,975.985962 
	C423.200195,989.162659 424.147034,1002.356689 423.031464,1015.502686 
	C422.891022,1017.157532 422.698730,1018.896790 423.500000,1020.500000 
"/>
<path fill="none" opacity="1.000000" stroke="#000000" stroke-linecap="round" stroke-linejoin="round" stroke-width="3.000000"
	d="
M254.500000,119.500000 
	C231.255737,123.576080 209.215195,131.290619 187.500320,141.434631 
	C191.970551,148.646057 197.777222,154.368591 203.059921,160.447937 
	C220.657135,180.698929 237.442642,201.640213 255.271713,221.702866 
	C258.057159,224.837280 261.107117,228.346375 263.111023,232.445724 
	C264.955383,236.218674 268.968201,233.993011 272.008209,234.444672 
	C272.448975,234.510162 272.957245,233.668945 273.506775,233.526001 
	C277.935547,232.374054 280.380157,234.833740 279.541046,239.282364 
	C269.997711,239.796677 260.507660,240.308121 250.750000,240.833984 
	C250.750000,239.036942 250.750000,237.518478 250.750000,235.766983 
	C254.185989,233.449280 258.820587,236.590149 262.500000,234.000000 
"/>
<path fill="none" opacity="1.000000" stroke="#000000" stroke-linecap="round" stroke-linejoin="round" stroke-width="3.000000"
	d="
M312.500000,252.500000 
	C307.000000,251.500000 301.509674,250.442856 295.998260,249.510223 
	C275.660370,246.068695 255.481506,246.685715 235.500000,252.000000 
"/>
<path fill="none" opacity="1.000000" stroke="#000000" stroke-linecap="round" stroke-linejoin="round" stroke-width="4.000000"
	d="
M410.500000,435.000000 
	C412.688049,436.618347 413.889526,438.691345 413.502930,441.500397 
	C413.480408,441.663971 413.505157,441.833527 413.499298,441.999969 
	C412.795624,462.017303 415.206818,481.985077 414.450500,501.998138 
	C414.342529,504.854889 415.821350,506.544556 417.447327,508.542847 
	C423.007446,515.375977 427.393616,523.023132 431.972504,530.516785 
	C440.244873,544.055054 449.312744,557.097900 457.106293,570.940186 
	C457.781586,572.139526 457.738495,573.445374 458.500000,574.500000 
"/>
<path fill="none" opacity="1.000000" stroke="#000000" stroke-linecap="round" stroke-linejoin="round" stroke-width="4.000000"
	d="
M410.500000,728.500000 
	C402.112457,729.048401 393.818756,730.407715 385.482697,731.346191 
	C379.159760,732.058044 372.815826,732.577515 366.488037,733.408936 
	C358.537689,734.453552 350.500000,734.833313 342.500000,735.499939 
"/>
<path fill="none" opacity="1.000000" stroke="#000000" stroke-linecap="round" stroke-linejoin="round" stroke-width="3.000000"
	d="
M322.500000,225.500000 
	C318.365875,221.305222 312.608459,221.355591 307.475220,220.101456 
	C291.578857,216.217758 275.526703,216.783936 259.507141,219.541489 
	C258.452332,219.723068 257.500000,220.500000 256.500000,221.000000 
"/>
<path fill="none" opacity="1.000000" stroke="#000000" stroke-linecap="round" stroke-linejoin="round" stroke-width="3.000000"
	d="
M506.000000,969.500000 
	C506.166656,986.833313 506.333344,1004.166687 506.500000,1021.500000 
"/>
<path fill="none" opacity="1.000000" stroke="#000000" stroke-linecap="round" stroke-linejoin="round" stroke-width="4.000000"
	d="
M469.500000,722.500000 
	C468.929047,724.120422 467.547638,723.466919 466.499786,723.475403 
	C453.759644,723.578430 441.244720,726.320862 428.506195,726.704956 
	C425.591522,726.792908 422.526886,727.408508 419.500000,727.500000 
"/>
<path fill="none" opacity="1.000000" stroke="#000000" stroke-linecap="round" stroke-linejoin="round" stroke-width="3.000000"
	d="
M363.000000,379.500000 
	C361.114227,383.191193 363.457458,386.643097 364.730957,389.393036 
	C368.952698,398.509613 374.256134,407.119232 378.971832,416.014923 
	C382.778778,423.196381 386.125031,430.615051 390.472626,437.517242 
	C393.777252,442.763672 396.730347,448.232056 400.054077,453.465637 
	C401.269623,455.379730 401.933197,457.388947 402.500000,459.500000 
"/>
<path fill="none" opacity="1.000000" stroke="#000000" stroke-linecap="round" stroke-linejoin="round" stroke-width="3.000000"
	d="
M362.500000,268.000000 
	C371.530487,274.927765 377.375946,283.938660 379.972626,295.006409 
	C380.764557,298.381714 381.968170,301.833344 380.000000,305.250000 
"/>
<path fill="none" opacity="1.000000" stroke="#000000" stroke-linecap="round" stroke-linejoin="round" stroke-width="3.000000"
	d="
M365.000000,334.000000 
	C372.327545,338.640442 377.207275,345.636230 381.832062,352.611359 
	C384.288544,356.316193 385.858246,361.391113 381.919983,365.421814 
	C379.250916,368.153534 380.778381,371.008331 381.164032,373.474335 
	C382.286987,380.655060 381.726288,387.830505 382.053955,394.997528 
	C382.166260,397.454315 380.562103,399.133209 380.000000,401.250000 
"/>
<path fill="none" opacity="1.000000" stroke="#000000" stroke-linecap="round" stroke-linejoin="round" stroke-width="3.000000"
	d="
M434.500000,511.500000 
	C442.016876,522.271851 449.330078,533.176392 456.000000,544.500000 
"/>
<path fill="none" opacity="1.000000" stroke="#000000" stroke-linecap="round" stroke-linejoin="round" stroke-width="4.000000"
	d="
M447.500000,247.000000 
	C437.500000,249.000000 427.500000,251.000000 417.500000,253.000000 
"/>
<path fill="none" opacity="1.000000" stroke="#000000" stroke-linecap="round" stroke-linejoin="round" stroke-width="3.000000"
	d="
M395.500000,259.500000 
	C385.408020,260.143585 375.644073,263.247223 365.500000,263.500000 
"/>
<path fill="none" opacity="1.000000" stroke="#000000" stroke-linecap="round" stroke-linejoin="round" stroke-width="3.000000"
	d="
M361.500000,292.000000 
	C374.370789,297.456085 382.960266,306.553009 386.031494,320.493073 
	C387.208801,325.836792 385.893097,330.258453 382.000000,334.000000 
"/>
<path fill="none" opacity="1.000000" stroke="#000000" stroke-linecap="round" stroke-linejoin="round" stroke-width="4.000000"
	d="
M139.500000,308.500000 
	C130.687042,311.251556 121.512894,312.229980 112.500000,314.000000 
"/>
<path fill="none" opacity="1.000000" stroke="#000000" stroke-linecap="round" stroke-linejoin="round" stroke-width="3.000000"
	d="
M365.000000,340.000000 
	C371.867828,346.578003 377.422852,353.982208 379.448944,363.510864 
	C379.699280,364.688263 381.350800,364.869263 381.000000,366.250000 
"/>
<path fill="none" opacity="1.000000" stroke="#000000" stroke-linecap="round" stroke-linejoin="round" stroke-width="4.000000"
	d="
M137.000000,1002.000000 
	C136.833328,1009.166687 136.708282,1016.334778 136.455521,1023.498413 
	C136.417221,1024.584229 135.363388,1024.524536 134.500000,1024.250000 
"/>
<path fill="none" opacity="1.000000" stroke="#000000" stroke-linecap="round" stroke-linejoin="round" stroke-width="3.000000"
	d="
M362.500000,356.500000 
	C362.500000,363.503967 362.500000,370.507935 362.500000,377.949615 
	C369.137878,381.860413 372.540894,389.181641 376.426971,396.041351 
	C378.069611,398.940918 380.138855,401.595459 381.105713,404.969696 
	C382.197693,408.780609 382.638855,412.219574 380.000000,415.500000 
"/>
</svg>